<svg xmlns="http://www.w3.org/2000/svg" width="220.428" height="303.399" viewBox="0 0 220.428 303.399"><path fill="#0065A8" d="M-.024 193.155h220.428V0H-.024"/><path fill="#EF3942" d="M110.16 193.217l55.12 55.12 55.124-55.12-55.123-55.123-55.12 55.123"/><path fill="#0065A8" d="M-.024 193.154L110.22 303.4l55.123-55.123L55.1 138.032-.025 193.154"/><path fill="#FFF" d="M82.44 220.936c15.343 15.345 40.22 15.345 55.562 0 15.346-15.342 15.346-40.22 0-55.563-15.342-15.344-40.22-15.344-55.563 0s-15.345 40.22 0 55.563z"/><path fill="#EF3942" d="M155.804 238.86c25.21-25.208 25.21-66.08 0-91.29-25.21-25.207-66.08-25.207-91.29 0-25.208 25.21-25.208 66.082 0 91.29s66.08 25.21 91.29 0z"/><path fill="#FFF" d="M133.78 169.594l12.495-12.494c-19.945-19.945-52.285-19.945-72.232 0-19.945 19.947-19.945 52.287 0 72.232l12.494-12.494c-13.045-13.046-13.045-34.197 0-47.242 13.046-13.047 34.2-13.047 47.244-.002z"/><path fill="#0065A8" d="M86.54 216.838l-12.497 12.494c19.947 19.947 52.287 19.947 72.232 0 19.947-19.945 19.947-52.285 0-72.232l-12.494 12.494c13.046 13.047 13.046 34.198 0 47.244-13.044 13.045-34.197 13.045-47.24 0z"/><path fill="#FFF" d="M124.576 207.633c7.963-7.96 7.963-20.87 0-28.834-7.96-7.962-20.87-7.962-28.834 0-7.96 7.962-7.96 20.872 0 28.833 7.963 7.963 20.873 7.963 28.834 0zM17.574 93.007c.084-.867.373-1.487.87-1.86.495-.37 1.175-.556 2.044-.556.39 0 .758.027 1.1.078.342.052.64.155.898.31s.465.372.62.65c.155.28.23.657.23 1.132.022.454-.112.8-.4 1.038-.29.237-.683.418-1.18.542-.493.124-1.063.217-1.702.28-.64.06-1.29.144-1.953.247-.66.103-1.315.243-1.966.418-.65.176-1.23.44-1.736.79-.506.352-.918.82-1.238 1.41-.322.59-.48 1.338-.48 2.246 0 .828.14 1.54.418 2.14s.666 1.095 1.162 1.487c.496.393 1.074.682 1.734.867.662.186 1.375.28 2.14.28.99 0 1.962-.145 2.91-.434.952-.29 1.778-.795 2.48-1.52.02.27.056.533.108.79.05.26.12.513.2.76h4.462c-.205-.33-.35-.825-.432-1.487-.084-.66-.125-1.353-.125-2.076v-8.335c0-.97-.217-1.75-.65-2.34-.434-.588-.992-1.048-1.674-1.378-.682-.33-1.436-.553-2.262-.667-.825-.113-1.642-.17-2.446-.17-.89 0-1.77.088-2.648.263-.88.176-1.67.47-2.37.883-.704.414-1.282.96-1.737 1.643-.456.68-.714 1.54-.774 2.57h4.398zm5.763 4.896c0 .248-.025.58-.076.992-.052.413-.19.82-.417 1.224-.23.402-.58.748-1.055 1.037s-1.146.434-2.014.434c-.352 0-.693-.03-1.023-.092s-.618-.17-.866-.326c-.248-.155-.443-.366-.59-.635-.143-.268-.217-.6-.217-.99 0-.414.074-.755.217-1.024.146-.268.336-.49.574-.666.238-.175.518-.315.836-.42.32-.103.646-.184.977-.246.353-.06.704-.113 1.056-.154.35-.04.686-.093 1.006-.155s.62-.14.898-.232c.28-.093.512-.22.697-.387v1.643zm16.92 2.045c.475-.248.865-.578 1.176-.99s.543-.884.697-1.41c.154-.528.232-1.08.232-1.66 0-.66-.06-1.285-.186-1.873-.123-.59-.33-1.11-.62-1.565s-.67-.816-1.145-1.085c-.476-.268-1.075-.403-1.798-.403-.62 0-1.15.124-1.594.372-.445.248-.818.584-1.117 1.007-.298.425-.515.91-.65 1.458-.134.547-.2 1.12-.2 1.72 0 .578.057 1.15.17 1.72.113.568.31 1.08.59 1.533.277.456.645.827 1.1 1.116.453.29 1.023.434 1.703.434.62 0 1.168-.124 1.644-.372zm6.026 5.33c-.176.826-.553 1.596-1.13 2.308-.58.713-1.417 1.317-2.51 1.813-1.095.495-2.564.743-4.4.743-.786 0-1.587-.098-2.4-.295-.817-.196-1.562-.5-2.233-.914-.67-.413-1.23-.945-1.672-1.595-.445-.652-.697-1.432-.76-2.34h4.37c.204.825.608 1.398 1.206 1.72.6.32 1.29.48 2.076.48 1.24 0 2.145-.373 2.713-1.116.568-.744.842-1.684.82-2.82v-2.107h-.06c-.478.847-1.153 1.472-2.032 1.875-.876.402-1.8.604-2.772.604-1.197 0-2.23-.212-3.098-.635-.867-.423-1.58-1-2.14-1.735-.556-.733-.966-1.59-1.224-2.572-.258-.98-.387-2.018-.387-3.114 0-1.033.15-2.03.448-2.99.3-.96.738-1.808 1.316-2.542.578-.733 1.297-1.317 2.154-1.75.857-.434 1.844-.65 2.96-.65 1.052 0 1.978.195 2.772.588.795.392 1.46 1.053 2 1.983h.06v-2.14h4.185v14.998c0 .64-.087 1.374-.262 2.2zM59.76 91.83c-.526-.578-1.325-.868-2.4-.868-.702 0-1.286.12-1.75.357-.466.236-.837.53-1.116.882-.277.35-.475.723-.588 1.115-.115.393-.182.744-.203 1.054h7.158c-.204-1.115-.57-1.96-1.1-2.54zm-4.97 8.428c.66.64 1.61.96 2.85.96.888 0 1.65-.22 2.294-.665.64-.444 1.03-.914 1.176-1.41h3.873c-.62 1.92-1.57 3.295-2.85 4.12-1.28.827-2.83 1.24-4.648 1.24-1.26 0-2.396-.2-3.408-.604-1.012-.404-1.87-.977-2.572-1.72-.7-.744-1.244-1.632-1.627-2.665-.383-1.033-.572-2.17-.572-3.41 0-1.197.195-2.312.588-3.345.393-1.033.95-1.926 1.674-2.68.723-.755 1.586-1.35 2.588-1.782 1-.434 2.11-.65 3.33-.65 1.363 0 2.55.262 3.564.79 1.012.526 1.844 1.234 2.494 2.122.65.888 1.12 1.9 1.408 3.036.29 1.137.395 2.324.31 3.564h-11.56c.063 1.425.424 2.458 1.087 3.098zM72.045 88.08v2.232h.094c.56-.93 1.28-1.606 2.17-2.03.887-.423 1.797-.635 2.727-.635 1.176 0 2.143.16 2.896.48.754.32 1.348.764 1.783 1.332.432.567.736 1.26.912 2.075s.264 1.72.264 2.71v9.855h-4.4v-9.048c0-1.322-.207-2.31-.62-2.96-.413-.65-1.145-.976-2.198-.976-1.2 0-2.066.357-2.604 1.07-.537.712-.805 1.885-.805 3.516v8.398h-4.4V88.08h4.18zm25.38 6.06c-.126-.61-.34-1.148-.638-1.613-.3-.465-.686-.84-1.162-1.13-.475-.29-1.072-.435-1.797-.435-.724 0-1.333.145-1.83.434-.495.29-.892.672-1.19 1.147-.3.475-.518 1.017-.652 1.626-.135.61-.2 1.244-.2 1.905 0 .62.07 1.24.216 1.86.145.62.377 1.172.697 1.657.32.486.724.878 1.21 1.178.484.3 1.068.45 1.75.45.725 0 1.328-.145 1.813-.435.484-.29.873-.676 1.162-1.162.29-.485.496-1.038.62-1.658.124-.62.187-1.26.187-1.92 0-.662-.064-1.297-.187-1.906zm.185 7.915c-.517.868-1.192 1.493-2.03 1.875-.836.382-1.78.573-2.834.573-1.2 0-2.252-.232-3.16-.697-.91-.465-1.658-1.095-2.248-1.89-.588-.795-1.03-1.71-1.33-2.742-.3-1.033-.45-2.107-.45-3.223 0-1.073.15-2.11.45-3.113.3-1.002.742-1.885 1.33-2.65.59-.763 1.328-1.378 2.217-1.843s1.922-.697 3.098-.697c.95 0 1.854.2 2.71.604.858.404 1.536.998 2.032 1.783h.06v-8.057h4.4V104.1h-4.18v-2.045h-.064zm11.774-9.048c.084-.867.373-1.487.867-1.86.497-.37 1.18-.556 2.046-.556.393 0 .76.027 1.102.078.34.052.64.155.898.31s.465.372.62.65c.153.28.23.657.23 1.132.02.454-.112.8-.4 1.038-.29.237-.683.418-1.18.542s-1.063.217-1.704.28c-.64.06-1.29.144-1.95.247-.663.103-1.317.243-1.968.418-.652.176-1.23.44-1.736.79-.506.352-.92.82-1.238 1.41-.322.59-.48 1.338-.48 2.246 0 .828.14 1.54.418 2.14s.666 1.095 1.162 1.487c.496.393 1.074.682 1.734.867.662.186 1.375.28 2.14.28.99 0 1.96-.145 2.91-.434.952-.29 1.778-.795 2.48-1.52.02.27.057.533.11.79.05.26.118.513.2.76h4.463c-.207-.33-.354-.825-.436-1.487-.08-.66-.122-1.353-.122-2.076v-8.335c0-.97-.217-1.75-.65-2.34-.436-.588-.992-1.048-1.674-1.378-.682-.33-1.436-.553-2.262-.667-.826-.113-1.643-.17-2.447-.17-.89 0-1.773.088-2.65.263-.88.176-1.668.47-2.37.883-.702.414-1.282.96-1.735 1.643-.455.68-.713 1.54-.775 2.57h4.4zm5.764 4.896c0 .248-.025.58-.078.992-.05.413-.19.82-.418 1.224s-.578.748-1.053 1.037c-.478.29-1.147.434-2.017.434-.35 0-.69-.03-1.02-.092s-.62-.17-.868-.326c-.248-.155-.445-.366-.588-.635-.146-.268-.217-.6-.217-.99 0-.414.07-.755.217-1.024.143-.268.334-.49.572-.666.235-.175.515-.315.835-.42s.646-.184.977-.246c.352-.06.703-.113 1.053-.154.352-.04.688-.093 1.008-.155s.62-.14.898-.232c.28-.093.513-.22.698-.387v1.643zM17.064 69.662c.195.34.45.62.758.837.31.216.666.376 1.07.48.402.103.82.154 1.254.154.31 0 .635-.036.977-.108.34-.072.65-.186.93-.34.28-.156.512-.362.697-.62.186-.26.28-.584.28-.977 0-.662-.44-1.157-1.32-1.488-.876-.33-2.1-.66-3.67-.992-.64-.144-1.267-.314-1.876-.51-.607-.197-1.15-.455-1.625-.776-.478-.32-.858-.722-1.147-1.208-.29-.485-.436-1.08-.436-1.782 0-1.033.203-1.88.605-2.54.402-.662.934-1.183 1.596-1.565.66-.383 1.404-.652 2.23-.807.826-.155 1.674-.232 2.54-.232.87 0 1.71.083 2.526.248.816.166 1.545.445 2.186.837.64.393 1.172.914 1.596 1.565.422.65.676 1.472.758 2.463h-4.182c-.063-.847-.383-1.42-.96-1.72-.58-.3-1.26-.45-2.046-.45-.248 0-.518.017-.807.048-.29.032-.554.1-.792.202-.236.104-.438.253-.604.45-.164.196-.248.46-.248.79 0 .392.145.712.434.96s.666.45 1.133.604c.465.155.996.295 1.596.42.597.123 1.206.257 1.827.4.64.146 1.264.322 1.875.528.607.207 1.15.48 1.627.82.474.342.854.766 1.144 1.272.29.506.436 1.13.436 1.874 0 1.054-.213 1.937-.637 2.65-.424.712-.975 1.286-1.656 1.72-.684.433-1.463.738-2.342.914-.877.175-1.77.263-2.68.263-.928 0-1.838-.093-2.727-.28s-1.678-.495-2.37-.93c-.692-.432-1.26-1.006-1.704-1.718-.445-.714-.688-1.607-.73-2.682h4.185c0 .476.097.884.294 1.224zm20.59-9.156c-.703 0-1.29.16-1.766.48-.477.32-.863.734-1.162 1.24-.3.506-.514 1.064-.637 1.673-.124.61-.187 1.213-.187 1.812 0 .578.063 1.167.186 1.766.122.6.325 1.142.604 1.627.28.485.654.883 1.13 1.193.476.31 1.054.464 1.735.464 1.052 0 1.864-.294 2.43-.883.57-.59.927-1.38 1.07-2.37h4.245c-.29 2.127-1.115 3.748-2.48 4.864-1.362 1.115-3.108 1.673-5.235 1.673-1.197 0-2.3-.2-3.3-.604-1.003-.403-1.855-.966-2.556-1.69-.703-.722-1.252-1.584-1.643-2.586-.392-1.002-.59-2.102-.59-3.3 0-1.24.183-2.39.544-3.455s.893-1.983 1.596-2.758 1.56-1.38 2.57-1.813c1.014-.433 2.17-.65 3.473-.65.95 0 1.863.124 2.742.372.877.248 1.662.625 2.354 1.13.692.508 1.255 1.138 1.688 1.89.434.756.682 1.65.742 2.682h-4.307c-.286-1.84-1.37-2.758-3.25-2.758zm10.256-5.36V51.52h4.4v3.625h-4.4zm4.4 2.478v16.02h-4.4v-16.02h4.4zm13.152 3.75c-.525-.578-1.326-.868-2.4-.868-.703 0-1.287.12-1.752.356-.465.238-.836.532-1.115.883-.28.352-.475.724-.588 1.116-.115.394-.182.745-.2 1.054h7.155c-.205-1.115-.572-1.962-1.1-2.54zm-4.972 8.428c.66.64 1.61.96 2.852.96.887 0 1.65-.22 2.293-.666.64-.444 1.03-.914 1.176-1.41h3.876c-.62 1.92-1.572 3.296-2.852 4.122-1.28.826-2.832 1.24-4.648 1.24-1.26 0-2.396-.202-3.408-.605-1.012-.403-1.87-.976-2.572-1.72s-1.244-1.632-1.627-2.665c-.384-1.033-.573-2.17-.573-3.408 0-1.198.195-2.314.588-3.347.393-1.032.95-1.926 1.674-2.68.722-.754 1.585-1.348 2.587-1.782s2.11-.65 3.33-.65c1.363 0 2.55.264 3.563.79 1.014.527 1.846 1.235 2.496 2.123.65.89 1.12 1.9 1.41 3.037.29 1.136.39 2.324.31 3.563h-11.56c.062 1.426.422 2.46 1.084 3.1zm17.258-12.178v2.23h.094c.56-.928 1.28-1.605 2.17-2.028.887-.423 1.797-.635 2.727-.635 1.175 0 2.142.16 2.895.48.754.32 1.348.765 1.78 1.333.435.57.74 1.26.915 2.076.176.816.264 1.72.264 2.71v9.854h-4.4v-9.048c0-1.322-.207-2.308-.62-2.96-.413-.65-1.145-.975-2.2-.975-1.197 0-2.064.357-2.602 1.07-.537.713-.805 1.885-.805 3.517v8.397h-4.4v-16.02h4.18zm21.845 2.882c-.703 0-1.29.16-1.766.48-.477.32-.863.734-1.162 1.24-.3.506-.512 1.064-.637 1.673-.123.61-.186 1.213-.186 1.812 0 .578.063 1.167.186 1.766.125.6.326 1.142.605 1.627.277.485.654.883 1.13 1.193.476.31 1.054.464 1.735.464 1.055 0 1.865-.294 2.434-.883.566-.59.924-1.38 1.068-2.37h4.244c-.29 2.127-1.115 3.748-2.48 4.864-1.362 1.115-3.108 1.673-5.235 1.673-1.198 0-2.298-.2-3.3-.604-1.002-.403-1.855-.966-2.557-1.69-.703-.722-1.25-1.584-1.643-2.586s-.59-2.102-.59-3.3c0-1.24.182-2.39.543-3.455s.893-1.983 1.596-2.758 1.56-1.38 2.57-1.813 2.17-.65 3.472-.65c.95 0 1.863.124 2.742.372.877.248 1.662.625 2.355 1.13.69.508 1.253 1.138 1.687 1.89.436.756.682 1.65.744 2.682h-4.306c-.286-1.84-1.372-2.758-3.25-2.758zm19.815.868c-.527-.578-1.326-.868-2.4-.868-.703 0-1.285.12-1.752.356-.465.238-.836.532-1.115.883-.276.352-.474.724-.587 1.116-.113.394-.182.745-.2 1.054h7.157c-.208-1.115-.575-1.962-1.102-2.54zm-4.973 8.428c.662.64 1.61.96 2.85.96.89 0 1.654-.22 2.293-.666.643-.444 1.033-.914 1.178-1.41h3.873c-.62 1.92-1.57 3.296-2.85 4.122-1.282.826-2.83 1.24-4.65 1.24-1.26 0-2.395-.202-3.407-.605-1.012-.403-1.87-.976-2.572-1.72-.7-.744-1.243-1.632-1.624-2.665-.383-1.033-.574-2.17-.574-3.408 0-1.198.195-2.314.588-3.347.393-1.032.95-1.926 1.674-2.68s1.586-1.348 2.588-1.782 2.11-.65 3.33-.65c1.363 0 2.553.264 3.564.79 1.012.527 1.844 1.235 2.494 2.123.65.89 1.12 1.9 1.41 3.037.29 1.136.39 2.324.31 3.563H113.35c.06 1.426.42 2.46 1.083 3.1zM24.546 33.226c-.125-.61-.336-1.147-.635-1.612-.3-.464-.687-.84-1.16-1.13-.476-.29-1.075-.434-1.798-.434-.725 0-1.334.144-1.828.433-.496.29-.895.672-1.193 1.147-.3.475-.517 1.018-.65 1.627-.134.61-.202 1.244-.202 1.905 0 .62.074 1.24.217 1.86.146.62.377 1.172.7 1.657.32.485.722.878 1.206 1.177.487.3 1.07.45 1.753.45.723 0 1.326-.145 1.813-.435.484-.29.873-.676 1.162-1.162.29-.485.494-1.038.62-1.658.122-.62.185-1.26.185-1.92 0-.662-.064-1.297-.187-1.906zm.186 7.917c-.516.867-1.193 1.492-2.03 1.874-.835.382-1.78.574-2.835.574-1.197 0-2.252-.232-3.16-.697-.91-.464-1.656-1.094-2.246-1.89-.59-.795-1.032-1.71-1.33-2.742-.302-1.032-.45-2.106-.45-3.222 0-1.073.148-2.112.45-3.114.298-1 .74-1.885 1.33-2.65.59-.763 1.327-1.378 2.218-1.843.887-.463 1.92-.696 3.098-.696.95 0 1.854.202 2.71.604.858.403 1.534.997 2.03 1.782h.063v-8.056h4.4v22.124h-4.185v-2.045h-.063zm18.406 2.045v-2.23h-.094c-.557.928-1.28 1.6-2.168 2.013-.89.414-1.8.62-2.727.62-1.18 0-2.146-.154-2.9-.464-.753-.31-1.347-.75-1.78-1.317s-.738-1.26-.914-2.077c-.176-.816-.264-1.72-.264-2.712V27.17h4.4v9.048c0 1.322.207 2.308.62 2.96.413.65 1.145.975 2.2.975 1.197 0 2.064-.355 2.602-1.068.537-.713.807-1.885.807-3.517v-8.397h4.4v16.02H43.14zm16.33-16.02v2.944h-3.225v7.932c0 .744.125 1.24.373 1.487s.744.373 1.486.373c.248 0 .486-.01.713-.03.227-.02.445-.052.652-.094v3.408c-.373.062-.787.103-1.24.124-.455.02-.898.03-1.332.03-.684 0-1.328-.046-1.938-.14-.61-.092-1.146-.272-1.61-.54-.466-.27-.833-.652-1.1-1.148-.27-.495-.403-1.146-.403-1.952v-9.45h-2.666v-2.944h2.666v-4.803h4.398v4.803h3.226zm9.76 2.882c-.703 0-1.29.16-1.768.48-.475.32-.86.733-1.16 1.24-.3.506-.512 1.064-.637 1.673-.123.61-.186 1.213-.186 1.812 0 .58.063 1.168.186 1.766.125.6.326 1.143.605 1.628.28.486.654.883 1.13 1.193.476.31 1.054.466 1.735.466 1.055 0 1.863-.294 2.434-.883.566-.59.924-1.38 1.068-2.37h4.244c-.29 2.127-1.116 3.75-2.48 4.864-1.363 1.116-3.11 1.674-5.236 1.674-1.197 0-2.3-.2-3.3-.604-1.003-.403-1.855-.965-2.556-1.688-.703-.723-1.25-1.586-1.645-2.588-.39-1-.588-2.102-.588-3.3 0-1.24.182-2.39.543-3.455.36-1.063.893-1.983 1.596-2.757.7-.775 1.56-1.38 2.572-1.813 1.012-.434 2.168-.65 3.47-.65.95 0 1.864.123 2.74.37.88.25 1.665.626 2.356 1.132s1.256 1.136 1.69 1.89c.433.754.68 1.648.743 2.68h-4.307c-.287-1.838-1.37-2.757-3.25-2.757zm14.53-8.986V29.4h.095c.557-.93 1.27-1.607 2.137-2.03.87-.424 1.715-.636 2.54-.636 1.18 0 2.146.16 2.9.48.753.32 1.347.765 1.78 1.333.434.568.738 1.26.914 2.076.176.816.264 1.72.264 2.71v9.855h-4.4V34.14c0-1.322-.207-2.31-.62-2.96-.413-.65-1.145-.975-2.2-.975-1.197 0-2.064.356-2.602 1.07-.54.71-.807 1.884-.807 3.515v8.398h-4.4V21.064h4.4z"/><g><path fill="#0063A7" d="M0 0v193.155h220.428V0H0"/><path fill="#FFF" d="M18.31 93.007c.083-.867.373-1.487.87-1.86.495-.37 1.176-.556 2.044-.556.392 0 .76.027 1.1.078.34.052.64.155.898.31s.465.372.62.65c.155.28.232.657.232 1.132.02.454-.114.8-.403 1.038-.29.237-.68.418-1.176.542-.496.124-1.064.217-1.704.28-.64.06-1.292.144-1.952.247-.662.103-1.317.243-1.968.418-.65.176-1.23.44-1.735.79-.506.352-.92.82-1.24 1.41-.32.59-.48 1.338-.48 2.246 0 .828.14 1.54.42 2.14.278.6.665 1.095 1.16 1.487.497.392 1.075.682 1.736.867.662.186 1.375.28 2.14.28.99 0 1.96-.145 2.912-.434.95-.29 1.776-.795 2.48-1.52.02.27.056.533.107.79.05.26.118.513.2.76h4.463c-.207-.33-.352-.825-.434-1.487-.084-.66-.125-1.353-.125-2.076v-8.335c0-.97-.217-1.75-.65-2.34-.434-.588-.992-1.048-1.673-1.378-.682-.33-1.436-.553-2.262-.667-.827-.113-1.643-.17-2.448-.17-.888 0-1.77.088-2.65.263-.877.176-1.667.47-2.37.883-.702.414-1.28.96-1.734 1.643-.455.68-.713 1.54-.775 2.57h4.398zm5.764 4.896c0 .248-.026.58-.077.992-.052.413-.19.82-.418 1.224-.23.402-.58.748-1.055 1.037-.476.29-1.146.434-2.014.434-.35 0-.69-.03-1.02-.092-.332-.062-.62-.17-.87-.326-.247-.155-.443-.366-.587-.635-.145-.268-.217-.6-.217-.99 0-.414.072-.755.217-1.024.144-.268.335-.49.573-.666.237-.175.516-.315.836-.42.32-.103.646-.184.976-.246.35-.06.702-.113 1.054-.154.35-.042.687-.093 1.007-.155.32-.06.62-.14.897-.232.28-.093.512-.22.697-.387v1.643zm16.92 2.045c.474-.248.866-.578 1.176-.99s.542-.884.697-1.41c.155-.528.232-1.08.232-1.66 0-.66-.063-1.285-.187-1.873-.124-.59-.33-1.11-.62-1.565-.29-.454-.67-.816-1.146-1.085-.476-.268-1.074-.403-1.797-.403-.62 0-1.152.124-1.596.372-.444.248-.816.584-1.116 1.007-.3.425-.517.91-.65 1.458-.135.547-.202 1.12-.202 1.72 0 .578.057 1.15.17 1.72.113.567.31 1.08.59 1.533.278.456.645.827 1.1 1.116.453.29 1.02.434 1.703.434.62 0 1.167-.124 1.643-.372zm6.025 5.33c-.177.826-.554 1.596-1.132 2.308-.58.713-1.415 1.317-2.51 1.813-1.095.495-2.562.743-4.4.743-.786 0-1.586-.1-2.4-.295-.817-.196-1.56-.5-2.232-.914s-1.23-.945-1.673-1.595c-.445-.652-.697-1.432-.76-2.34h4.37c.206.825.61 1.398 1.208 1.72.6.32 1.292.48 2.077.48 1.24 0 2.143-.373 2.71-1.116.57-.744.842-1.684.822-2.82v-2.107h-.063c-.476.847-1.152 1.472-2.03 1.874-.878.404-1.802.606-2.773.606-1.2 0-2.23-.212-3.1-.636-.867-.423-1.58-1-2.137-1.735-.558-.733-.966-1.59-1.224-2.572-.258-.98-.387-2.02-.387-3.114 0-1.033.15-2.03.45-2.99.298-.96.737-1.808 1.316-2.542.578-.733 1.296-1.317 2.154-1.75.857-.434 1.844-.65 2.96-.65 1.053 0 1.977.195 2.772.588.795.392 1.46 1.053 2 1.983h.062v-2.14h4.183v14.998c0 .64-.09 1.373-.264 2.2zM60.5 91.83c-.528-.578-1.33-.868-2.403-.868-.702 0-1.286.12-1.75.357-.465.236-.837.53-1.116.882-.278.35-.475.723-.588 1.115-.114.393-.18.744-.2 1.054h7.157c-.208-1.115-.576-1.96-1.1-2.54zm-4.976 8.428c.66.64 1.612.96 2.85.96.89 0 1.653-.22 2.294-.665.64-.444 1.033-.915 1.177-1.41h3.874c-.62 1.92-1.57 3.295-2.852 4.12-1.28.827-2.83 1.24-4.648 1.24-1.26 0-2.396-.2-3.408-.604-1.013-.404-1.87-.977-2.572-1.72-.703-.744-1.245-1.632-1.627-2.665-.382-1.033-.573-2.17-.573-3.41 0-1.197.196-2.312.588-3.345.393-1.033.95-1.926 1.674-2.68.723-.755 1.585-1.35 2.587-1.782 1-.434 2.11-.65 3.33-.65 1.363 0 2.55.262 3.563.79 1.012.526 1.844 1.234 2.495 2.122.65.888 1.12 1.9 1.41 3.036.29 1.137.392 2.324.31 3.564H54.44c.062 1.425.423 2.458 1.084 3.098zm17.26-12.177v2.232h.092c.558-.93 1.28-1.606 2.17-2.03.887-.423 1.796-.635 2.726-.635 1.177 0 2.143.16 2.897.48.753.32 1.347.764 1.78 1.332.435.567.74 1.26.915 2.075.175.816.263 1.72.263 2.71v9.854h-4.4V95.05c0-1.322-.206-2.31-.62-2.96-.413-.65-1.146-.976-2.2-.976-1.198 0-2.065.357-2.602 1.07-.537.713-.806 1.886-.806 3.517v8.397h-4.4V88.08h4.183zM98.16 94.14c-.124-.61-.336-1.146-.635-1.61-.3-.466-.687-.842-1.162-1.132-.475-.29-1.074-.434-1.797-.434s-1.332.145-1.828.434c-.496.29-.894.672-1.193 1.147-.3.475-.517 1.017-.65 1.626-.135.61-.202 1.244-.202 1.905 0 .62.072 1.24.217 1.86.144.62.376 1.172.697 1.657.32.486.723.878 1.208 1.177.485.3 1.07.45 1.75.45.724 0 1.328-.145 1.814-.435.484-.29.87-.676 1.16-1.162.29-.485.496-1.038.62-1.658.124-.62.186-1.26.186-1.92 0-.662-.062-1.297-.186-1.907zm.186 7.917c-.516.868-1.193 1.493-2.03 1.875-.836.382-1.78.573-2.834.573-1.2 0-2.252-.232-3.16-.697s-1.66-1.095-2.248-1.89c-.588-.795-1.033-1.71-1.332-2.742-.3-1.033-.45-2.107-.45-3.223 0-1.073.15-2.11.45-3.113.3-1.002.744-1.885 1.332-2.65.59-.763 1.328-1.378 2.216-1.843.888-.465 1.92-.697 3.1-.697.948 0 1.852.2 2.71.604.857.404 1.534.998 2.03 1.783h.06v-8.057h4.4V104.1H98.41v-2.045h-.062zm11.776-9.048c.082-.867.372-1.487.867-1.86.495-.37 1.177-.556 2.043-.556.394 0 .76.027 1.1.078.342.052.643.155.9.31.258.155.465.372.62.65.154.28.23.657.23 1.132.022.454-.112.8-.4 1.038-.29.237-.683.418-1.18.542s-1.063.217-1.702.28c-.64.06-1.292.144-1.952.247-.662.103-1.317.243-1.968.418-.65.176-1.23.44-1.735.79-.507.352-.92.82-1.24 1.41-.32.59-.48 1.338-.48 2.246 0 .828.14 1.54.418 2.14.28.6.667 1.095 1.162 1.487.496.392 1.074.682 1.736.867.66.186 1.374.28 2.14.28.99 0 1.96-.145 2.91-.434.95-.29 1.778-.795 2.48-1.52.02.27.058.533.11.79.05.26.117.513.2.76h4.462c-.207-.33-.353-.825-.435-1.487-.082-.66-.123-1.353-.123-2.076v-8.335c0-.97-.217-1.75-.65-2.34-.434-.588-.992-1.048-1.674-1.378-.682-.33-1.436-.553-2.262-.667-.826-.113-1.643-.17-2.448-.17-.888 0-1.77.088-2.65.263-.877.176-1.667.47-2.37.883-.702.414-1.28.96-1.735 1.643-.454.68-.712 1.54-.774 2.57h4.402zm5.762 4.896c0 .248-.025.58-.077.992-.052.413-.192.82-.42 1.224s-.577.748-1.052 1.037c-.477.29-1.146.434-2.014.434-.352 0-.692-.03-1.022-.092s-.62-.17-.867-.326c-.247-.155-.444-.366-.588-.635-.145-.268-.217-.6-.217-.99 0-.414.072-.755.217-1.024.144-.268.335-.49.573-.666.237-.175.516-.315.837-.42.32-.103.646-.184.976-.246.352-.06.702-.113 1.053-.154.353-.042.69-.093 1.01-.155s.618-.14.897-.232c.28-.093.512-.22.697-.387v1.643zM27.886 73.644l-2.85-10.752h-.063l-2.727 10.752H17.69l-5.08-16.02h4.647L20.2 68.5h.063l2.665-10.876h4.276L29.93 68.47h.063l2.944-10.846h4.524l-5.05 16.02h-4.524zm21.116-12.27c-.527-.578-1.328-.868-2.4-.868-.704 0-1.287.12-1.75.356-.466.238-.838.532-1.117.883-.28.352-.476.724-.59 1.116-.113.394-.18.745-.2 1.054h7.158c-.207-1.115-.574-1.962-1.1-2.54zm-4.973 8.428c.66.64 1.61.96 2.85.96.888 0 1.652-.22 2.293-.666.64-.444 1.032-.914 1.177-1.41h3.873c-.62 1.92-1.57 3.295-2.85 4.12-1.282.828-2.83 1.24-4.648 1.24-1.26 0-2.396-.2-3.41-.603-1.01-.403-1.87-.976-2.57-1.72-.704-.744-1.246-1.632-1.627-2.665-.383-1.033-.574-2.17-.574-3.408 0-1.198.196-2.314.59-3.347.39-1.033.95-1.926 1.672-2.68s1.585-1.348 2.587-1.782c1-.433 2.112-.65 3.33-.65 1.364 0 2.552.264 3.564.79 1.012.527 1.844 1.235 2.494 2.123.652.89 1.122 1.9 1.41 3.037.29 1.136.393 2.324.31 3.563H42.946c.062 1.426.423 2.46 1.084 3.1zm21.875-12.178v2.944h-3.223V68.5c0 .744.124 1.24.372 1.488s.744.372 1.487.372c.25 0 .486-.01.714-.03.227-.022.444-.053.65-.094v3.408c-.37.062-.785.103-1.24.124-.453.02-.897.03-1.33.03-.683 0-1.33-.045-1.938-.138-.61-.093-1.146-.274-1.61-.543-.466-.268-.833-.65-1.1-1.146-.27-.495-.404-1.146-.404-1.95v-9.452h-2.665v-2.944h2.665V52.82h4.4v4.804h3.223zm11.79 3.75c-.527-.578-1.328-.868-2.402-.868-.702 0-1.286.12-1.75.356-.465.238-.837.532-1.116.883-.28.352-.475.724-.59 1.116-.113.394-.18.745-.2 1.054h7.158c-.207-1.115-.574-1.962-1.1-2.54zm-4.974 8.428c.662.64 1.613.96 2.852.96.888 0 1.652-.22 2.293-.666.64-.444 1.033-.914 1.178-1.41h3.873c-.62 1.92-1.57 3.295-2.85 4.12-1.282.828-2.83 1.24-4.65 1.24-1.26 0-2.395-.2-3.407-.603-1.014-.403-1.87-.976-2.573-1.72-.703-.744-1.245-1.632-1.627-2.665-.382-1.033-.573-2.17-.573-3.408 0-1.198.196-2.314.59-3.347.39-1.033.948-1.926 1.672-2.68.722-.754 1.584-1.348 2.586-1.782s2.112-.65 3.33-.65c1.365 0 2.552.264 3.565.79 1.012.527 1.844 1.235 2.495 2.123.65.89 1.12 1.9 1.41 3.037.29 1.136.392 2.324.31 3.563H71.637c.062 1.426.424 2.46 1.084 3.1zm17.26-12.178v2.23h.093c.558-.928 1.28-1.605 2.17-2.028.887-.423 1.796-.636 2.726-.636 1.177 0 2.142.16 2.896.48.754.32 1.348.765 1.782 1.333.434.57.738 1.26.914 2.076.175.816.263 1.72.263 2.71v9.854h-4.4v-9.048c0-1.322-.206-2.308-.62-2.96-.413-.65-1.146-.975-2.2-.975-1.198 0-2.065.357-2.602 1.07-.538.713-.806 1.885-.806 3.517v8.397h-4.4v-16.02h4.183zm17.895 12.038c.196.34.45.62.76.837.31.216.666.376 1.068.48.403.103.822.154 1.255.154.31 0 .636-.036.976-.108.342-.072.65-.186.93-.34.28-.156.512-.362.697-.62.188-.26.28-.584.28-.977 0-.662-.44-1.158-1.316-1.488-.88-.33-2.103-.66-3.672-.992-.64-.144-1.265-.314-1.874-.51-.61-.197-1.152-.455-1.627-.776-.474-.32-.856-.723-1.146-1.208-.29-.485-.433-1.08-.433-1.782 0-1.033.202-1.88.605-2.54.403-.662.934-1.183 1.596-1.565.662-.383 1.405-.652 2.232-.807.826-.155 1.673-.233 2.54-.233s1.71.083 2.526.248c.816.166 1.544.445 2.185.837.64.393 1.173.914 1.596 1.565s.676 1.472.758 2.463h-4.183c-.063-.847-.383-1.42-.96-1.72-.58-.3-1.26-.45-2.045-.45-.248 0-.517.017-.806.048-.29.032-.553.1-.79.202-.238.104-.44.253-.604.45-.166.196-.248.46-.248.79 0 .392.144.712.433.96.29.248.667.45 1.13.604.466.155.998.295 1.597.42.6.123 1.21.257 1.828.4.64.146 1.266.322 1.875.528.608.207 1.15.48 1.627.82.475.342.856.766 1.146 1.272.29.506.435 1.13.435 1.874 0 1.054-.213 1.937-.635 2.65-.425.712-.977 1.286-1.658 1.72-.683.433-1.46.738-2.34.914-.88.175-1.77.263-2.68.263-.93 0-1.84-.093-2.727-.28-.89-.185-1.68-.495-2.37-.93-.693-.432-1.26-1.006-1.705-1.718-.444-.714-.687-1.607-.728-2.682h4.183c-.002.476.095.884.292 1.224zm20.59-9.156c-.703 0-1.292.16-1.767.48-.476.32-.863.734-1.162 1.24-.3.506-.512 1.064-.635 1.673-.124.61-.186 1.213-.186 1.812 0 .578.062 1.167.187 1.766.124.6.325 1.14.605 1.627.28.485.656.883 1.13 1.193.476.31 1.056.464 1.736.464 1.055 0 1.865-.294 2.434-.883.568-.59.924-1.38 1.07-2.37h4.244c-.29 2.127-1.116 3.748-2.48 4.864-1.363 1.115-3.107 1.673-5.236 1.673-1.197 0-2.297-.202-3.3-.604-1-.403-1.853-.966-2.556-1.69-.703-.722-1.25-1.584-1.643-2.586s-.588-2.102-.588-3.3c0-1.24.18-2.39.54-3.455s.895-1.983 1.597-2.758c.703-.775 1.56-1.38 2.572-1.813 1.012-.433 2.17-.65 3.47-.65.95 0 1.864.124 2.743.372.877.248 1.662.625 2.354 1.13.693.508 1.256 1.138 1.69 1.89.434.756.682 1.65.743 2.682h-4.307c-.288-1.84-1.372-2.758-3.252-2.758zm14.532-8.986v8.335h.093c.56-.93 1.27-1.606 2.14-2.03s1.714-.635 2.54-.635c1.178 0 2.143.16 2.896.48.754.32 1.348.765 1.78 1.333.436.57.74 1.26.915 2.076.177.816.266 1.72.266 2.71v9.854h-4.4v-9.048c0-1.322-.206-2.308-.62-2.96s-1.146-.975-2.2-.975c-1.197 0-2.065.357-2.603 1.07-.537.713-.806 1.885-.806 3.517v8.397h-4.4V51.52h4.4zm18.188 11.03c.082-.867.372-1.486.867-1.858.496-.372 1.178-.558 2.045-.558.393 0 .76.026 1.1.078.342.05.64.155.9.31.258.154.465.37.62.65.154.28.23.656.23 1.13.02.456-.113.802-.402 1.04-.29.237-.68.418-1.177.54-.496.125-1.064.218-1.704.28-.642.062-1.292.145-1.953.248-.66.104-1.314.243-1.967.42-.65.174-1.23.438-1.734.79-.508.35-.92.82-1.24 1.41-.32.587-.48 1.336-.48 2.245 0 .827.14 1.54.418 2.138.278.6.666 1.095 1.16 1.487.497.393 1.075.682 1.737.868.66.186 1.373.28 2.137.28.992 0 1.964-.146 2.914-.435.95-.29 1.776-.795 2.48-1.518.02.268.056.532.108.79.05.258.117.51.2.76h4.462c-.207-.33-.352-.827-.434-1.488-.083-.66-.124-1.353-.124-2.076v-8.335c0-.97-.217-1.75-.65-2.34-.434-.588-.99-1.047-1.673-1.378-.682-.33-1.437-.552-2.263-.666-.825-.112-1.642-.17-2.448-.17-.888 0-1.77.09-2.648.264-.88.176-1.668.47-2.37.883-.703.413-1.28.96-1.735 1.642-.454.68-.712 1.538-.774 2.57h4.4zm5.764 4.897c0 .248-.027.578-.078.99-.052.415-.192.823-.42 1.225-.226.403-.577.75-1.052 1.038-.477.29-1.147.434-2.015.434-.353 0-.692-.03-1.022-.093s-.62-.17-.867-.324c-.248-.155-.445-.367-.59-.635-.145-.268-.217-.598-.217-.99 0-.414.07-.755.216-1.023.145-.27.336-.49.574-.667.236-.175.516-.314.836-.418.32-.103.646-.186.977-.248.352-.062.7-.113 1.053-.155.352-.042.688-.094 1.008-.156.32-.062.62-.14.898-.232.28-.093.51-.222.697-.387v1.642zm17.706 2.882c.486-.29.88-.668 1.18-1.132.298-.465.51-1.007.634-1.627s.187-1.25.187-1.89-.067-1.27-.2-1.89c-.136-.62-.358-1.172-.67-1.657-.308-.485-.705-.878-1.19-1.178-.486-.3-1.08-.45-1.78-.45-.726 0-1.33.15-1.814.45-.486.3-.878.687-1.177 1.162-.3.476-.512 1.023-.637 1.643-.124.62-.187 1.26-.187 1.92 0 .64.066 1.27.2 1.89s.353 1.163.653 1.628c.3.464.696.842 1.19 1.13.497.29 1.097.434 1.8.434.722 0 1.325-.144 1.81-.433zm-5.717-12.706v2.045H179c.537-.868 1.22-1.498 2.045-1.89.826-.393 1.736-.59 2.727-.59 1.26 0 2.346.238 3.254.713.91.476 1.662 1.105 2.263 1.89.6.786 1.044 1.7 1.333 2.743.288 1.043.434 2.133.434 3.27 0 1.073-.146 2.106-.434 3.097-.29.992-.728 1.87-1.317 2.634-.588.765-1.322 1.374-2.2 1.828-.878.454-1.905.682-3.083.682-.99 0-1.904-.202-2.742-.604-.835-.403-1.522-.997-2.06-1.782h-.063v7.593h-4.4v-21.63h4.182zm18.452 12.038c.195.34.45.62.76.837.31.216.666.376 1.068.48.402.103.82.154 1.256.154.31 0 .635-.036.975-.108.342-.072.65-.186.93-.34.28-.156.512-.362.698-.62.186-.26.28-.584.28-.977 0-.662-.44-1.158-1.318-1.488s-2.103-.66-3.673-.992c-.64-.144-1.264-.314-1.873-.51-.61-.197-1.152-.455-1.627-.776-.475-.32-.857-.723-1.146-1.208-.29-.485-.433-1.08-.433-1.782 0-1.033.2-1.88.604-2.54.404-.662.935-1.183 1.597-1.565.662-.383 1.404-.652 2.23-.807.827-.155 1.674-.233 2.542-.233.866 0 1.708.083 2.523.248.816.166 1.545.445 2.186.837.64.393 1.17.914 1.595 1.565.422.65.676 1.472.758 2.463h-4.183c-.062-.847-.382-1.42-.96-1.72-.578-.3-1.26-.45-2.045-.45-.248 0-.518.017-.807.048-.288.032-.553.1-.79.202-.237.104-.438.253-.603.45-.166.196-.248.46-.248.79 0 .392.144.712.434.96.29.248.667.45 1.132.604.464.155.996.295 1.595.42.6.123 1.21.257 1.83.4.64.146 1.265.322 1.873.528.608.207 1.15.48 1.627.82.476.342.856.766 1.146 1.272.29.506.435 1.13.435 1.874 0 1.054-.212 1.937-.636 2.65-.424.712-.975 1.286-1.657 1.72-.68.433-1.46.738-2.34.914-.877.175-1.77.263-2.68.263-.93 0-1.84-.093-2.727-.28-.89-.185-1.68-.495-2.37-.93-.693-.432-1.26-1.006-1.705-1.718-.443-.714-.687-1.607-.728-2.682h4.183c0 .476.097.884.294 1.224zM18.28 27.168v2.23h.093c.558-.93 1.28-1.605 2.17-2.03.887-.422 1.796-.634 2.726-.634 1.177 0 2.142.16 2.896.48.754.32 1.348.765 1.782 1.333.434.568.738 1.26.914 2.076.175.816.263 1.72.263 2.71v9.855h-4.4V34.14c0-1.322-.207-2.31-.62-2.96-.414-.65-1.146-.975-2.2-.975-1.198 0-2.066.356-2.603 1.07-.537.71-.805 1.884-.805 3.515v8.398h-4.4v-16.02h4.183zm18.405 4.927c.083-.868.372-1.488.868-1.86.496-.37 1.178-.557 2.045-.557.392 0 .76.026 1.1.077.34.052.64.155.9.31.257.155.464.372.62.65.154.28.23.657.23 1.132.02.454-.113.8-.402 1.038-.29.238-.682.418-1.178.542-.496.124-1.064.217-1.704.28-.64.06-1.29.144-1.952.247s-1.317.243-1.967.418c-.65.176-1.23.44-1.735.79-.506.352-.92.82-1.24 1.41s-.48 1.338-.48 2.247c0 .825.14 1.538.418 2.137.28.6.667 1.095 1.162 1.487.496.393 1.074.682 1.735.868.66.186 1.374.28 2.138.28.99 0 1.962-.146 2.913-.435.95-.29 1.776-.795 2.48-1.52.02.27.056.533.107.792.05.257.12.51.2.758h4.463c-.207-.33-.35-.826-.434-1.488-.083-.66-.124-1.352-.124-2.076V31.29c0-.972-.217-1.752-.65-2.34-.435-.59-.992-1.05-1.674-1.38s-1.436-.552-2.262-.665c-.827-.114-1.642-.17-2.448-.17-.89 0-1.77.087-2.65.262-.877.176-1.667.47-2.37.884-.702.414-1.28.96-1.735 1.643-.456.682-.714 1.54-.776 2.572h4.4zm5.764 4.895c0 .248-.027.58-.08.992-.05.413-.19.82-.417 1.224-.227.403-.578.75-1.053 1.038-.476.29-1.146.434-2.014.434-.352 0-.692-.03-1.022-.093-.33-.062-.62-.17-.868-.326-.248-.155-.444-.367-.59-.636-.144-.268-.216-.6-.216-.99 0-.414.072-.755.217-1.024.145-.268.336-.49.573-.666.237-.175.516-.315.837-.418.32-.103.645-.186.976-.248.35-.062.702-.114 1.053-.155.35-.04.687-.093 1.007-.155.32-.062.62-.14.898-.232.28-.093.512-.222.698-.388v1.642zm16.607-9.822v2.944h-3.223v7.932c0 .744.124 1.24.372 1.487.248.25.743.373 1.487.373.248 0 .485-.01.713-.03.227-.02.444-.052.65-.094v3.408c-.37.062-.785.103-1.24.124-.454.02-.898.03-1.33.03-.683 0-1.33-.046-1.938-.14-.61-.092-1.146-.272-1.61-.54-.466-.27-.833-.652-1.1-1.148-.27-.495-.404-1.146-.404-1.952v-9.45H48.77v-2.944h2.665v-4.803h4.4v4.803h3.222zm2.23-2.48v-3.624h4.4v3.625h-4.4zm4.4 2.48v16.02h-4.4v-16.02h4.4zm7.562 9.9c.123.61.334 1.157.634 1.642.3.486.697.873 1.193 1.162.496.29 1.115.434 1.86.434.743 0 1.367-.144 1.874-.434.507-.29.91-.676 1.21-1.162.298-.485.51-1.033.634-1.642.124-.61.186-1.234.186-1.875 0-.64-.062-1.27-.186-1.89s-.336-1.167-.635-1.642c-.3-.474-.703-.86-1.21-1.16-.506-.3-1.13-.45-1.874-.45-.744 0-1.363.15-1.86.45-.495.3-.893.686-1.192 1.16-.3.476-.51 1.023-.635 1.643s-.187 1.25-.187 1.89c0 .64.062 1.266.186 1.875zm-4-5.36c.393-1.044.95-1.932 1.674-2.665.723-.733 1.59-1.302 2.603-1.705 1.01-.403 2.148-.604 3.408-.604 1.26 0 2.4.2 3.424.604 1.022.403 1.894.972 2.617 1.705.723.733 1.28 1.62 1.674 2.664.393 1.044.59 2.206.59 3.486 0 1.28-.197 2.438-.59 3.47-.392 1.034-.95 1.917-1.673 2.65-.723.734-1.595 1.297-2.618 1.69-1.024.39-2.165.588-3.425.588-1.26 0-2.397-.196-3.408-.588-1.013-.392-1.88-.955-2.603-1.69-.724-.732-1.28-1.615-1.674-2.648-.392-1.033-.588-2.19-.588-3.47 0-1.28.196-2.443.588-3.487zm23.023-4.54v2.23h.093c.558-.93 1.28-1.605 2.17-2.03.887-.422 1.796-.634 2.726-.634 1.177 0 2.143.16 2.897.48.753.32 1.347.765 1.78 1.333.434.568.74 1.26.915 2.076.175.816.263 1.72.263 2.71v9.855h-4.4V34.14c0-1.322-.207-2.31-.62-2.96-.413-.65-1.146-.975-2.2-.975-1.198 0-2.066.356-2.603 1.07-.537.71-.805 1.884-.805 3.515v8.398h-4.4v-16.02h4.183zm18.405 4.927c.083-.868.372-1.488.868-1.86.496-.37 1.177-.557 2.045-.557.394 0 .76.026 1.1.077.343.052.642.155.9.31s.464.372.62.65c.154.28.232.657.232 1.132.02.454-.115.8-.403 1.038-.29.238-.684.418-1.18.542-.494.124-1.063.217-1.703.28-.64.06-1.29.144-1.952.247s-1.317.243-1.968.418c-.65.176-1.23.44-1.735.79-.506.352-.92.82-1.24 1.41-.32.59-.48 1.338-.48 2.247 0 .825.14 1.538.42 2.137.278.6.665 1.095 1.16 1.487.496.393 1.075.682 1.736.868.66.186 1.373.28 2.138.28.992 0 1.963-.146 2.914-.435.95-.29 1.775-.795 2.48-1.52.02.27.056.533.106.792.05.257.12.51.2.758h4.464c-.207-.33-.352-.826-.434-1.488-.083-.66-.124-1.352-.124-2.076V31.29c0-.972-.217-1.752-.65-2.34-.435-.59-.993-1.05-1.673-1.38-.684-.33-1.438-.552-2.264-.665-.827-.114-1.644-.17-2.448-.17-.89 0-1.77.087-2.65.262-.877.176-1.667.47-2.37.884-.7.414-1.28.96-1.734 1.643-.455.682-.713 1.54-.775 2.572h4.398zm5.765 4.895c0 .248-.027.58-.078.992-.053.413-.19.82-.418 1.224-.23.403-.58.75-1.055 1.038-.475.29-1.146.434-2.014.434-.352 0-.69-.03-1.02-.093-.333-.062-.622-.17-.87-.326-.248-.155-.444-.367-.59-.636-.143-.268-.216-.6-.216-.99 0-.414.073-.755.217-1.024.144-.268.335-.49.573-.666.237-.175.517-.315.837-.418.32-.103.646-.186.975-.248.352-.062.703-.114 1.055-.155s.686-.093 1.007-.155c.32-.062.62-.14.897-.232.28-.093.513-.222.7-.388v1.642zm12.332-15.926v22.124h-4.4V21.064h4.4zm13.152 9.853c-.527-.578-1.326-.867-2.4-.867-.703 0-1.287.12-1.752.356-.465.238-.836.532-1.115.883-.278.35-.475.722-.588 1.115-.114.392-.182.743-.203 1.053h7.157c-.207-1.115-.572-1.962-1.1-2.54zm-4.972 8.428c.66.64 1.61.96 2.85.96.89 0 1.653-.22 2.294-.665.64-.444 1.03-.914 1.176-1.41h3.873c-.62 1.92-1.57 3.295-2.85 4.12-1.282.828-2.832 1.24-4.65 1.24-1.26 0-2.395-.2-3.407-.604-1.012-.403-1.87-.976-2.572-1.72-.7-.743-1.243-1.63-1.625-2.664-.384-1.033-.574-2.17-.574-3.41 0-1.197.198-2.312.59-3.345.393-1.033.95-1.926 1.674-2.68.723-.754 1.586-1.348 2.588-1.782 1-.434 2.11-.65 3.33-.65 1.363 0 2.55.262 3.563.79 1.013.526 1.844 1.234 2.495 2.122.65.888 1.12 1.9 1.408 3.036.29 1.137.394 2.324.31 3.564H135.87c.06 1.425.423 2.458 1.085 3.098z"/><path fill="#EF3742" d="M110.182 193.217l55.123 55.12 55.122-55.12-55.122-55.123-55.123 55.123"/><path fill="#0063A7" d="M0 193.154L110.244 303.4l55.123-55.123L55.123 138.032 0 193.154"/><path fill="#FFF" d="M82.463 220.936c15.343 15.345 40.22 15.345 55.563 0 15.344-15.342 15.344-40.22 0-55.563s-40.22-15.344-55.563 0c-15.344 15.344-15.344 40.22 0 55.563z"/><path fill="#EF3742" d="M155.828 238.86c25.21-25.208 25.21-66.08 0-91.29-25.21-25.207-66.08-25.207-91.29 0-25.208 25.21-25.208 66.082 0 91.29 25.21 25.21 66.08 25.21 91.29 0z"/><path fill="#FFF" d="M133.804 169.594L146.3 157.1c-19.947-19.945-52.287-19.945-72.234 0-19.946 19.947-19.946 52.287 0 72.232l12.495-12.494c-13.045-13.046-13.045-34.197 0-47.242 13.047-13.047 34.198-13.047 47.244-.002z"/><path fill="#0063A7" d="M86.562 216.838l-12.495 12.494c19.947 19.947 52.287 19.947 72.232 0 19.946-19.945 19.946-52.285 0-72.232l-12.495 12.494c13.047 13.047 13.047 34.198 0 47.244-13.047 13.045-34.198 13.045-47.243 0z"/><path fill="#FFF" d="M124.6 207.633c7.962-7.96 7.962-20.87 0-28.834-7.963-7.962-20.872-7.962-28.834 0-7.963 7.962-7.963 20.872 0 28.833 7.963 7.963 20.87 7.963 28.835 0z"/></g></svg>