<?xml version="1.0" encoding="utf-8"?>
<!-- Generator: Adobe Illustrator 16.0.0, SVG Export Plug-In . SVG Version: 6.00 Build 0)  -->
<!DOCTYPE svg PUBLIC "-//W3C//DTD SVG 1.1//EN" "http://www.w3.org/Graphics/SVG/1.1/DTD/svg11.dtd">
<svg version="1.1" xmlns="http://www.w3.org/2000/svg" xmlns:xlink="http://www.w3.org/1999/xlink" x="0px" y="0px"
	 width="220.428px" height="303.399px" viewBox="0 0 220.428 303.399" enable-background="new 0 0 220.428 303.399"
	 xml:space="preserve">
<g id="Layer_1">
	<g>
		<polyline fill="#0065A8" points="-0.024,193.155 220.404,193.155 220.404,0 -0.024,0 		"/>
		<polygon fill="#EF3942" points="110.16,193.217 165.281,248.338 220.404,193.217 165.281,138.094 110.16,193.217 		"/>
		<polyline fill="#0065A8" points="-0.024,193.154 110.22,303.399 165.343,248.277 55.099,138.032 -0.024,193.154 		"/>
		<path fill="#FFFFFF" d="M82.439,220.936c15.344,15.345,40.221,15.345,55.563,0c15.346-15.342,15.346-40.219,0-55.563
			c-15.342-15.344-40.219-15.344-55.563,0S67.095,205.594,82.439,220.936L82.439,220.936z"/>
		<path fill="#EF3942" d="M155.804,238.861c25.209-25.209,25.209-66.081,0-91.29c-25.209-25.208-66.08-25.208-91.289,0
			c-25.209,25.209-25.209,66.081,0,91.29S130.595,264.07,155.804,238.861L155.804,238.861z"/>
		<path fill="#FFFFFF" d="M133.781,169.594l12.494-12.494c-19.945-19.945-52.285-19.945-72.232,0
			c-19.945,19.947-19.945,52.287,0,72.232l12.494-12.494c-13.045-13.046-13.045-34.197,0-47.242
			C99.583,156.549,120.736,156.549,133.781,169.594L133.781,169.594z"/>
		<path fill="#0065A8" d="M86.539,216.838l-12.496,12.494c19.947,19.947,52.287,19.947,72.232,0
			c19.947-19.945,19.947-52.285,0-72.232l-12.494,12.494c13.045,13.047,13.045,34.198,0,47.244
			C120.736,229.883,99.583,229.883,86.539,216.838L86.539,216.838z"/>
		<path fill="#FFFFFF" d="M124.576,207.633c7.963-7.961,7.963-20.871,0-28.834c-7.961-7.961-20.871-7.961-28.834,0
			c-7.961,7.963-7.961,20.873,0,28.834C103.705,215.596,116.615,215.596,124.576,207.633L124.576,207.633z"/>
		<path fill="#FFFFFF" d="M17.574,93.007c0.084-0.867,0.373-1.487,0.869-1.859c0.496-0.371,1.176-0.557,2.045-0.557
			c0.391,0,0.758,0.026,1.1,0.077c0.342,0.052,0.641,0.155,0.898,0.31c0.258,0.155,0.465,0.372,0.619,0.651
			c0.156,0.278,0.232,0.656,0.232,1.131c0.021,0.454-0.113,0.8-0.402,1.038c-0.289,0.237-0.682,0.418-1.178,0.542
			c-0.494,0.124-1.064,0.217-1.703,0.279c-0.641,0.062-1.291,0.145-1.953,0.248c-0.66,0.103-1.316,0.243-1.967,0.418
			c-0.65,0.176-1.23,0.439-1.736,0.79c-0.506,0.352-0.918,0.821-1.238,1.41c-0.322,0.589-0.48,1.338-0.48,2.246
			c0,0.827,0.139,1.54,0.418,2.139s0.666,1.095,1.162,1.487c0.496,0.393,1.074,0.682,1.734,0.867
			c0.662,0.186,1.375,0.279,2.139,0.279c0.992,0,1.963-0.144,2.912-0.433c0.951-0.29,1.777-0.795,2.48-1.519
			c0.02,0.269,0.055,0.532,0.107,0.79c0.051,0.259,0.119,0.512,0.201,0.76h4.461c-0.205-0.331-0.35-0.826-0.432-1.488
			c-0.084-0.661-0.125-1.353-0.125-2.076v-8.335c0-0.971-0.217-1.751-0.65-2.34c-0.434-0.588-0.992-1.048-1.674-1.378
			c-0.682-0.331-1.436-0.553-2.262-0.667c-0.826-0.113-1.643-0.17-2.447-0.17c-0.889,0-1.771,0.088-2.648,0.263
			c-0.879,0.176-1.67,0.47-2.371,0.883c-0.703,0.414-1.281,0.961-1.736,1.643c-0.455,0.681-0.713,1.539-0.773,2.571H17.574
			L17.574,93.007z M23.337,97.903c0,0.248-0.025,0.579-0.076,0.992c-0.053,0.413-0.191,0.821-0.418,1.224
			c-0.229,0.403-0.58,0.749-1.055,1.038s-1.146,0.434-2.014,0.434c-0.352,0-0.693-0.031-1.023-0.093s-0.619-0.171-0.867-0.326
			c-0.248-0.155-0.443-0.366-0.59-0.635c-0.143-0.268-0.217-0.599-0.217-0.991c0-0.413,0.074-0.754,0.217-1.023
			c0.146-0.268,0.336-0.49,0.574-0.666c0.238-0.175,0.518-0.315,0.836-0.419c0.32-0.104,0.646-0.185,0.977-0.247
			c0.352-0.062,0.703-0.114,1.055-0.155c0.35-0.041,0.686-0.093,1.006-0.155s0.621-0.14,0.898-0.233
			c0.279-0.093,0.512-0.221,0.697-0.387V97.903L23.337,97.903z M40.257,99.948c0.475-0.248,0.865-0.578,1.176-0.991
			s0.543-0.883,0.697-1.41c0.154-0.527,0.232-1.079,0.232-1.658c0-0.661-0.061-1.286-0.186-1.874
			c-0.123-0.589-0.33-1.111-0.619-1.565s-0.672-0.816-1.146-1.085c-0.477-0.268-1.076-0.403-1.799-0.403
			c-0.619,0-1.15,0.124-1.594,0.372c-0.445,0.248-0.818,0.584-1.117,1.007c-0.299,0.424-0.516,0.91-0.65,1.457
			c-0.135,0.547-0.201,1.12-0.201,1.719c0,0.579,0.057,1.152,0.17,1.72c0.113,0.569,0.311,1.08,0.59,1.534
			c0.277,0.455,0.645,0.826,1.1,1.115c0.453,0.29,1.023,0.434,1.703,0.434C39.234,100.32,39.781,100.196,40.257,99.948
			L40.257,99.948z M46.283,105.278c-0.176,0.826-0.553,1.596-1.131,2.308c-0.578,0.713-1.416,1.317-2.51,1.813
			c-1.094,0.496-2.563,0.744-4.4,0.744c-0.785,0-1.586-0.098-2.4-0.295c-0.816-0.196-1.561-0.501-2.232-0.914
			c-0.67-0.413-1.229-0.945-1.672-1.595c-0.445-0.651-0.697-1.431-0.76-2.34h4.369c0.205,0.826,0.609,1.399,1.207,1.72
			c0.6,0.32,1.291,0.48,2.076,0.48c1.24,0,2.145-0.372,2.713-1.115c0.568-0.744,0.842-1.684,0.82-2.82v-2.107h-0.061
			c-0.477,0.847-1.152,1.472-2.031,1.875c-0.877,0.402-1.801,0.604-2.773,0.604c-1.197,0-2.23-0.212-3.098-0.635
			c-0.867-0.424-1.58-1.002-2.139-1.736c-0.557-0.733-0.967-1.59-1.225-2.572c-0.258-0.98-0.387-2.018-0.387-3.114
			c0-1.032,0.15-2.029,0.449-2.99c0.301-0.96,0.738-1.807,1.316-2.541c0.578-0.733,1.297-1.317,2.154-1.75
			c0.857-0.434,1.844-0.651,2.959-0.651c1.053,0,1.979,0.196,2.773,0.589c0.795,0.392,1.461,1.053,2,1.983h0.061v-2.138h4.184
			v14.997C46.546,103.719,46.458,104.452,46.283,105.278L46.283,105.278z M59.761,91.83c-0.527-0.578-1.326-0.868-2.4-0.868
			c-0.703,0-1.287,0.12-1.752,0.357c-0.465,0.237-0.836,0.532-1.115,0.883c-0.277,0.351-0.475,0.723-0.588,1.115
			c-0.115,0.393-0.182,0.744-0.203,1.054h7.158C60.656,93.255,60.289,92.409,59.761,91.83L59.761,91.83z M54.789,100.258
			c0.66,0.641,1.611,0.961,2.852,0.961c0.887,0,1.65-0.222,2.293-0.666c0.639-0.444,1.031-0.914,1.176-1.41h3.873
			c-0.619,1.921-1.57,3.295-2.85,4.121c-1.281,0.826-2.83,1.239-4.648,1.239c-1.26,0-2.396-0.201-3.408-0.604
			c-1.012-0.403-1.871-0.976-2.572-1.72c-0.701-0.743-1.244-1.631-1.627-2.664c-0.383-1.033-0.572-2.169-0.572-3.409
			c0-1.198,0.195-2.313,0.588-3.346c0.393-1.033,0.951-1.926,1.674-2.681c0.723-0.754,1.586-1.348,2.588-1.781
			c1-0.434,2.111-0.651,3.33-0.651c1.363,0,2.551,0.263,3.564,0.79c1.012,0.527,1.844,1.235,2.494,2.123
			c0.65,0.888,1.119,1.9,1.408,3.036c0.289,1.137,0.395,2.324,0.311,3.564H53.703C53.765,98.585,54.126,99.618,54.789,100.258
			L54.789,100.258z M72.046,88.081v2.231h0.094c0.559-0.93,1.279-1.606,2.17-2.03c0.887-0.423,1.797-0.635,2.727-0.635
			c1.176,0,2.143,0.16,2.896,0.479c0.754,0.321,1.348,0.765,1.783,1.333c0.432,0.568,0.736,1.26,0.912,2.076
			s0.264,1.719,0.264,2.711v9.854h-4.4v-9.048c0-1.322-0.207-2.309-0.619-2.96c-0.414-0.65-1.146-0.976-2.199-0.976
			c-1.199,0-2.066,0.357-2.604,1.069c-0.537,0.713-0.805,1.886-0.805,3.517v8.398h-4.4v-16.02H72.046L72.046,88.081z M97.425,94.139
			c-0.125-0.61-0.338-1.147-0.637-1.612c-0.299-0.465-0.686-0.841-1.162-1.131c-0.475-0.289-1.072-0.434-1.797-0.434
			c-0.723,0-1.332,0.145-1.828,0.434c-0.496,0.29-0.893,0.672-1.191,1.147c-0.301,0.475-0.518,1.017-0.652,1.626
			c-0.135,0.61-0.201,1.245-0.201,1.906c0,0.62,0.072,1.24,0.217,1.859c0.145,0.62,0.377,1.173,0.697,1.658
			c0.32,0.486,0.723,0.878,1.209,1.178c0.484,0.299,1.068,0.449,1.75,0.449c0.725,0,1.328-0.144,1.813-0.434
			c0.484-0.289,0.873-0.676,1.162-1.162c0.289-0.485,0.496-1.038,0.621-1.658c0.123-0.619,0.186-1.26,0.186-1.921
			C97.611,95.383,97.548,94.748,97.425,94.139L97.425,94.139z M97.611,102.055c-0.518,0.868-1.193,1.493-2.031,1.875
			c-0.836,0.382-1.779,0.573-2.834,0.573c-1.199,0-2.252-0.232-3.16-0.697c-0.91-0.465-1.658-1.095-2.248-1.89
			c-0.588-0.795-1.031-1.709-1.33-2.742c-0.301-1.033-0.451-2.107-0.451-3.223c0-1.074,0.15-2.112,0.451-3.114
			c0.299-1.002,0.742-1.885,1.33-2.649c0.59-0.764,1.328-1.379,2.217-1.844s1.922-0.697,3.098-0.697
			c0.951,0,1.854,0.201,2.711,0.604c0.857,0.403,1.535,0.997,2.031,1.782h0.061v-8.057h4.4v22.125h-4.182v-2.046H97.611
			L97.611,102.055z M109.384,93.007c0.084-0.867,0.373-1.487,0.867-1.859c0.496-0.371,1.18-0.557,2.045-0.557
			c0.393,0,0.76,0.026,1.102,0.077c0.34,0.052,0.639,0.155,0.898,0.31c0.258,0.155,0.465,0.372,0.619,0.651
			c0.154,0.278,0.232,0.656,0.232,1.131c0.02,0.454-0.113,0.8-0.402,1.038c-0.289,0.237-0.682,0.418-1.178,0.542
			s-1.064,0.217-1.705,0.279c-0.639,0.062-1.291,0.145-1.951,0.248c-0.662,0.103-1.316,0.243-1.967,0.418
			c-0.652,0.176-1.23,0.439-1.736,0.79c-0.506,0.352-0.92,0.821-1.238,1.41c-0.322,0.589-0.48,1.338-0.48,2.246
			c0,0.827,0.139,1.54,0.418,2.139s0.666,1.095,1.162,1.487c0.496,0.393,1.074,0.682,1.734,0.867
			c0.662,0.186,1.375,0.279,2.139,0.279c0.992,0,1.961-0.144,2.912-0.433c0.951-0.29,1.777-0.795,2.479-1.519
			c0.021,0.269,0.057,0.532,0.109,0.79c0.051,0.259,0.119,0.512,0.201,0.76h4.463c-0.207-0.331-0.354-0.826-0.436-1.488
			c-0.082-0.661-0.123-1.353-0.123-2.076v-8.335c0-0.971-0.217-1.751-0.65-2.34c-0.436-0.588-0.992-1.048-1.674-1.378
			c-0.682-0.331-1.436-0.553-2.262-0.667c-0.826-0.113-1.643-0.17-2.447-0.17c-0.889,0-1.773,0.088-2.65,0.263
			c-0.879,0.176-1.668,0.47-2.371,0.883c-0.701,0.414-1.281,0.961-1.734,1.643c-0.455,0.681-0.713,1.539-0.775,2.571H109.384
			L109.384,93.007z M115.148,97.903c0,0.248-0.025,0.579-0.078,0.992c-0.051,0.413-0.191,0.821-0.418,1.224
			s-0.578,0.749-1.053,1.038c-0.477,0.289-1.146,0.434-2.016,0.434c-0.35,0-0.691-0.031-1.021-0.093s-0.619-0.171-0.867-0.326
			c-0.248-0.155-0.445-0.366-0.588-0.635c-0.146-0.268-0.217-0.599-0.217-0.991c0-0.413,0.07-0.754,0.217-1.023
			c0.143-0.268,0.334-0.49,0.572-0.666c0.236-0.175,0.516-0.315,0.836-0.419s0.646-0.185,0.977-0.247
			c0.352-0.062,0.703-0.114,1.053-0.155c0.352-0.041,0.688-0.093,1.008-0.155s0.619-0.14,0.898-0.233
			c0.279-0.093,0.512-0.221,0.697-0.387V97.903L115.148,97.903z"/>
		<path fill="#FFFFFF" d="M17.064,69.662c0.195,0.341,0.449,0.62,0.758,0.837c0.311,0.217,0.666,0.377,1.07,0.48
			c0.402,0.104,0.82,0.155,1.254,0.155c0.311,0,0.635-0.036,0.977-0.108c0.34-0.072,0.65-0.186,0.93-0.341
			c0.279-0.155,0.512-0.361,0.697-0.62c0.186-0.258,0.279-0.583,0.279-0.976c0-0.661-0.439-1.156-1.318-1.487
			c-0.877-0.33-2.102-0.661-3.672-0.992c-0.639-0.144-1.266-0.314-1.875-0.511c-0.607-0.196-1.15-0.454-1.625-0.775
			c-0.477-0.32-0.857-0.722-1.146-1.208c-0.289-0.485-0.436-1.079-0.436-1.782c0-1.033,0.203-1.879,0.605-2.541
			c0.402-0.661,0.934-1.182,1.596-1.564c0.66-0.382,1.404-0.651,2.23-0.806c0.826-0.155,1.674-0.232,2.541-0.232
			c0.869,0,1.709,0.082,2.525,0.247c0.816,0.166,1.545,0.445,2.186,0.837c0.639,0.393,1.172,0.914,1.596,1.565
			c0.422,0.651,0.676,1.472,0.758,2.463h-4.182c-0.063-0.847-0.383-1.42-0.961-1.72c-0.578-0.299-1.26-0.449-2.045-0.449
			c-0.248,0-0.518,0.016-0.807,0.047c-0.289,0.031-0.553,0.098-0.791,0.201c-0.236,0.104-0.438,0.253-0.604,0.449
			c-0.164,0.197-0.248,0.46-0.248,0.791c0,0.392,0.145,0.712,0.434,0.96s0.666,0.449,1.133,0.604
			c0.465,0.155,0.996,0.295,1.596,0.419c0.598,0.124,1.207,0.258,1.828,0.402c0.639,0.145,1.264,0.321,1.875,0.527
			c0.607,0.207,1.15,0.481,1.627,0.821c0.475,0.341,0.855,0.765,1.145,1.271c0.289,0.506,0.436,1.131,0.436,1.874
			c0,1.054-0.213,1.937-0.637,2.65c-0.424,0.712-0.975,1.286-1.656,1.719c-0.684,0.434-1.463,0.739-2.342,0.915
			c-0.877,0.175-1.77,0.263-2.68,0.263c-0.928,0-1.838-0.093-2.727-0.279s-1.678-0.496-2.369-0.93
			c-0.693-0.433-1.26-1.007-1.705-1.719c-0.445-0.713-0.688-1.606-0.729-2.681h4.184C16.769,68.914,16.867,69.322,17.064,69.662
			L17.064,69.662z M37.654,60.506c-0.703,0-1.291,0.16-1.766,0.48c-0.477,0.321-0.863,0.734-1.162,1.24
			c-0.301,0.506-0.514,1.064-0.637,1.673c-0.123,0.61-0.186,1.214-0.186,1.813c0,0.578,0.063,1.167,0.186,1.766
			c0.123,0.599,0.326,1.142,0.605,1.627c0.279,0.485,0.654,0.883,1.131,1.193c0.475,0.309,1.053,0.464,1.734,0.464
			c1.053,0,1.865-0.294,2.432-0.883c0.568-0.588,0.926-1.379,1.07-2.37h4.244c-0.289,2.128-1.115,3.749-2.479,4.865
			c-1.363,1.115-3.109,1.673-5.236,1.673c-1.197,0-2.299-0.201-3.301-0.604c-1.002-0.403-1.854-0.966-2.555-1.689
			c-0.703-0.723-1.252-1.585-1.643-2.587c-0.393-1.002-0.59-2.102-0.59-3.3c0-1.24,0.182-2.391,0.543-3.455s0.893-1.983,1.596-2.758
			s1.559-1.379,2.57-1.813c1.014-0.434,2.17-0.65,3.473-0.65c0.949,0,1.863,0.123,2.742,0.371c0.877,0.248,1.662,0.625,2.354,1.131
			c0.693,0.507,1.256,1.137,1.689,1.89c0.434,0.755,0.682,1.648,0.742,2.681h-4.307C40.617,61.425,39.533,60.506,37.654,60.506
			L37.654,60.506L37.654,60.506z M47.91,55.145V51.52h4.4v3.625H47.91L47.91,55.145z M52.31,57.624v16.02h-4.4v-16.02H52.31
			L52.31,57.624z M65.462,61.374c-0.525-0.578-1.326-0.868-2.4-0.868c-0.703,0-1.287,0.119-1.752,0.356
			c-0.465,0.238-0.836,0.532-1.115,0.883c-0.279,0.352-0.475,0.724-0.588,1.116c-0.115,0.393-0.182,0.744-0.201,1.053h7.156
			C66.357,62.799,65.99,61.952,65.462,61.374L65.462,61.374z M60.49,69.802c0.66,0.64,1.611,0.96,2.852,0.96
			c0.887,0,1.65-0.221,2.293-0.666c0.639-0.444,1.031-0.914,1.176-1.41h3.875c-0.621,1.921-1.572,3.296-2.852,4.122
			c-1.281,0.826-2.832,1.239-4.648,1.239c-1.26,0-2.396-0.201-3.408-0.604c-1.012-0.403-1.869-0.976-2.572-1.72
			s-1.244-1.632-1.627-2.665c-0.383-1.033-0.572-2.169-0.572-3.408c0-1.198,0.195-2.314,0.588-3.347
			c0.393-1.032,0.949-1.926,1.674-2.68c0.723-0.754,1.586-1.348,2.588-1.782s2.111-0.65,3.33-0.65c1.363,0,2.551,0.263,3.563,0.79
			c1.014,0.526,1.846,1.234,2.496,2.122c0.65,0.889,1.119,1.901,1.41,3.037c0.289,1.136,0.391,2.324,0.309,3.563H59.406
			C59.468,68.129,59.828,69.162,60.49,69.802L60.49,69.802z M77.748,57.624v2.231h0.094c0.559-0.929,1.281-1.606,2.17-2.029
			c0.887-0.423,1.797-0.635,2.727-0.635c1.176,0,2.143,0.16,2.896,0.48c0.754,0.32,1.348,0.764,1.781,1.332
			c0.434,0.569,0.738,1.26,0.914,2.076c0.176,0.817,0.264,1.72,0.264,2.712v9.853h-4.4v-9.048c0-1.322-0.207-2.308-0.619-2.959
			c-0.414-0.651-1.146-0.976-2.201-0.976c-1.197,0-2.064,0.356-2.602,1.069c-0.537,0.713-0.805,1.885-0.805,3.517v8.397h-4.4v-16.02
			H77.748L77.748,57.624z M99.593,60.506c-0.703,0-1.291,0.16-1.766,0.48c-0.477,0.321-0.863,0.734-1.162,1.24
			c-0.301,0.506-0.512,1.064-0.637,1.673c-0.123,0.61-0.186,1.214-0.186,1.813c0,0.578,0.063,1.167,0.186,1.766
			c0.125,0.599,0.326,1.142,0.605,1.627c0.277,0.485,0.654,0.883,1.131,1.193c0.475,0.309,1.053,0.464,1.734,0.464
			c1.055,0,1.865-0.294,2.434-0.883c0.566-0.588,0.924-1.379,1.068-2.37h4.244c-0.289,2.128-1.115,3.749-2.479,4.865
			c-1.363,1.115-3.109,1.673-5.236,1.673c-1.197,0-2.297-0.201-3.299-0.604c-1.002-0.403-1.855-0.966-2.557-1.689
			c-0.703-0.723-1.25-1.585-1.643-2.587s-0.59-2.102-0.59-3.3c0-1.24,0.182-2.391,0.543-3.455s0.893-1.983,1.596-2.758
			s1.561-1.379,2.572-1.813s2.168-0.65,3.471-0.65c0.949,0,1.863,0.123,2.742,0.371c0.877,0.248,1.662,0.625,2.355,1.131
			c0.691,0.507,1.254,1.137,1.688,1.89c0.436,0.755,0.682,1.648,0.744,2.681h-4.307C102.558,61.425,101.472,60.506,99.593,60.506
			L99.593,60.506L99.593,60.506z M119.408,61.374c-0.527-0.578-1.326-0.868-2.4-0.868c-0.703,0-1.285,0.119-1.752,0.356
			c-0.465,0.238-0.836,0.532-1.115,0.883c-0.277,0.352-0.475,0.724-0.588,1.116c-0.113,0.393-0.182,0.744-0.201,1.053h7.158
			C120.302,62.799,119.935,61.952,119.408,61.374L119.408,61.374z M114.435,69.802c0.662,0.64,1.611,0.96,2.85,0.96
			c0.889,0,1.654-0.221,2.293-0.666c0.643-0.444,1.033-0.914,1.178-1.41h3.873c-0.619,1.921-1.568,3.296-2.85,4.122
			c-1.281,0.826-2.83,1.239-4.648,1.239c-1.26,0-2.396-0.201-3.408-0.604c-1.012-0.403-1.869-0.976-2.572-1.72
			c-0.701-0.744-1.244-1.632-1.625-2.665c-0.383-1.033-0.574-2.169-0.574-3.408c0-1.198,0.195-2.314,0.588-3.347
			c0.393-1.032,0.951-1.926,1.674-2.68s1.586-1.348,2.588-1.782s2.111-0.65,3.33-0.65c1.363,0,2.553,0.263,3.564,0.79
			c1.012,0.526,1.844,1.234,2.494,2.122c0.65,0.889,1.121,1.901,1.41,3.037c0.289,1.136,0.391,2.324,0.309,3.563h-11.557
			C113.412,68.129,113.773,69.162,114.435,69.802L114.435,69.802z"/>
		<path fill="#FFFFFF" d="M24.546,33.226c-0.125-0.609-0.336-1.147-0.635-1.612c-0.301-0.464-0.688-0.841-1.162-1.131
			c-0.475-0.289-1.074-0.433-1.797-0.433c-0.725,0-1.334,0.144-1.828,0.433c-0.496,0.29-0.895,0.672-1.193,1.147
			c-0.301,0.475-0.518,1.018-0.65,1.627c-0.135,0.609-0.203,1.244-0.203,1.905c0,0.62,0.074,1.24,0.217,1.859
			c0.146,0.62,0.377,1.173,0.699,1.658c0.32,0.486,0.723,0.879,1.207,1.178c0.486,0.299,1.07,0.449,1.752,0.449
			c0.723,0,1.326-0.144,1.813-0.434c0.484-0.289,0.873-0.676,1.162-1.162c0.289-0.485,0.494-1.038,0.619-1.658
			c0.123-0.619,0.186-1.259,0.186-1.921C24.732,34.47,24.669,33.835,24.546,33.226L24.546,33.226z M24.732,41.143
			c-0.516,0.867-1.193,1.492-2.029,1.874c-0.836,0.382-1.781,0.574-2.836,0.574c-1.197,0-2.252-0.233-3.16-0.698
			c-0.91-0.464-1.656-1.094-2.246-1.89c-0.59-0.795-1.033-1.709-1.332-2.742c-0.301-1.033-0.449-2.107-0.449-3.223
			c0-1.073,0.148-2.112,0.449-3.114c0.299-1.001,0.742-1.885,1.332-2.649c0.59-0.764,1.326-1.379,2.217-1.844
			c0.887-0.464,1.92-0.697,3.098-0.697c0.949,0,1.854,0.202,2.711,0.604c0.857,0.403,1.533,0.997,2.029,1.782h0.063v-8.056h4.4
			v22.124h-4.184v-2.045H24.732L24.732,41.143z M43.138,43.188v-2.231h-0.094c-0.557,0.929-1.281,1.601-2.168,2.014
			c-0.889,0.413-1.799,0.62-2.727,0.62c-1.178,0-2.145-0.155-2.898-0.465c-0.754-0.31-1.348-0.749-1.781-1.317
			s-0.738-1.26-0.914-2.076c-0.176-0.816-0.264-1.72-0.264-2.712v-9.853h4.4v9.048c0,1.322,0.207,2.308,0.619,2.959
			c0.414,0.651,1.146,0.976,2.201,0.976c1.197,0,2.064-0.356,2.602-1.069c0.537-0.713,0.807-1.885,0.807-3.517v-8.397h4.4v16.02
			H43.138L43.138,43.188z M59.468,27.168v2.944h-3.225v7.932c0,0.744,0.125,1.239,0.373,1.487s0.744,0.372,1.486,0.372
			c0.248,0,0.486-0.01,0.713-0.031c0.227-0.02,0.445-0.051,0.652-0.093v3.409c-0.373,0.062-0.787,0.103-1.24,0.124
			c-0.455,0.02-0.898,0.031-1.332,0.031c-0.684,0-1.328-0.047-1.938-0.14c-0.609-0.093-1.146-0.273-1.611-0.542
			c-0.465-0.268-0.832-0.651-1.1-1.147c-0.27-0.495-0.402-1.146-0.402-1.952v-9.45h-2.666v-2.944h2.666v-4.803h4.398v4.803H59.468
			L59.468,27.168z M69.228,30.05c-0.703,0-1.291,0.16-1.768,0.48c-0.475,0.32-0.861,0.733-1.16,1.239
			c-0.301,0.507-0.512,1.065-0.637,1.674c-0.123,0.609-0.186,1.213-0.186,1.812c0,0.579,0.063,1.168,0.186,1.766
			c0.125,0.6,0.326,1.142,0.605,1.627c0.279,0.486,0.654,0.883,1.131,1.193c0.475,0.31,1.053,0.465,1.734,0.465
			c1.055,0,1.863-0.294,2.434-0.883c0.566-0.589,0.924-1.379,1.068-2.371h4.244c-0.289,2.128-1.115,3.75-2.479,4.865
			c-1.363,1.116-3.109,1.674-5.236,1.674c-1.197,0-2.299-0.202-3.301-0.605c-1.002-0.403-1.854-0.965-2.555-1.688
			c-0.703-0.723-1.25-1.586-1.645-2.588c-0.391-1.001-0.588-2.102-0.588-3.3c0-1.239,0.182-2.391,0.543-3.455
			c0.361-1.063,0.893-1.983,1.596-2.757c0.701-0.775,1.559-1.379,2.572-1.813c1.012-0.434,2.168-0.651,3.471-0.651
			c0.949,0,1.863,0.124,2.74,0.372c0.879,0.248,1.664,0.625,2.355,1.131s1.256,1.136,1.689,1.89c0.434,0.754,0.682,1.648,0.744,2.68
			h-4.307C72.191,30.969,71.107,30.05,69.228,30.05L69.228,30.05L69.228,30.05z M83.759,21.064v8.335h0.094
			c0.557-0.93,1.27-1.606,2.137-2.03c0.869-0.423,1.715-0.635,2.541-0.635c1.178,0,2.145,0.16,2.898,0.48
			c0.754,0.321,1.348,0.765,1.781,1.333c0.434,0.568,0.738,1.26,0.914,2.076c0.176,0.816,0.264,1.72,0.264,2.711v9.854h-4.4V34.14
			c0-1.322-0.207-2.309-0.619-2.959c-0.414-0.651-1.146-0.976-2.201-0.976c-1.197,0-2.064,0.356-2.602,1.069
			c-0.539,0.712-0.807,1.885-0.807,3.516v8.398h-4.4V21.064H83.759L83.759,21.064z"/>
	</g>
</g>
<g id="Layer_2">
	<g>
		<polygon fill="#0063A7" points="0,0 0,193.155 220.428,193.155 220.428,0 0,0 		"/>
		<path fill="#FFFFFF" d="M18.311,93.007c0.082-0.867,0.372-1.487,0.868-1.859c0.496-0.372,1.177-0.557,2.045-0.557
			c0.392,0,0.759,0.026,1.1,0.077c0.341,0.052,0.64,0.155,0.898,0.31c0.258,0.155,0.465,0.372,0.62,0.651
			c0.155,0.278,0.232,0.656,0.232,1.131c0.021,0.454-0.114,0.8-0.403,1.038c-0.29,0.237-0.682,0.418-1.177,0.542
			c-0.496,0.124-1.064,0.217-1.704,0.279c-0.641,0.062-1.292,0.145-1.952,0.248c-0.662,0.103-1.317,0.243-1.968,0.418
			c-0.651,0.176-1.229,0.439-1.735,0.79c-0.506,0.352-0.919,0.821-1.239,1.41c-0.321,0.589-0.48,1.338-0.48,2.246
			c0,0.827,0.14,1.54,0.418,2.138c0.279,0.6,0.666,1.096,1.162,1.488c0.496,0.392,1.074,0.682,1.735,0.867
			c0.661,0.186,1.374,0.279,2.138,0.279c0.992,0,1.962-0.144,2.913-0.433c0.95-0.29,1.776-0.795,2.479-1.519
			c0.021,0.269,0.057,0.532,0.108,0.79c0.051,0.259,0.119,0.512,0.202,0.759h4.462c-0.207-0.33-0.352-0.825-0.434-1.487
			c-0.083-0.661-0.124-1.353-0.124-2.076v-8.335c0-0.971-0.217-1.751-0.65-2.34c-0.434-0.588-0.992-1.048-1.673-1.378
			c-0.682-0.331-1.436-0.553-2.262-0.667c-0.827-0.113-1.643-0.17-2.448-0.17c-0.888,0-1.771,0.088-2.649,0.263
			c-0.878,0.176-1.668,0.47-2.37,0.883c-0.703,0.414-1.281,0.961-1.735,1.643c-0.455,0.681-0.713,1.539-0.775,2.571H18.311
			L18.311,93.007z M24.074,97.903c0,0.248-0.026,0.579-0.077,0.992c-0.052,0.413-0.191,0.821-0.418,1.224
			c-0.228,0.403-0.579,0.749-1.054,1.038c-0.476,0.289-1.146,0.434-2.014,0.434c-0.351,0-0.692-0.031-1.022-0.093
			c-0.331-0.062-0.62-0.171-0.868-0.326c-0.248-0.155-0.444-0.366-0.588-0.635c-0.145-0.268-0.217-0.599-0.217-0.991
			c0-0.413,0.072-0.754,0.217-1.023c0.144-0.268,0.335-0.49,0.573-0.666c0.237-0.175,0.516-0.315,0.836-0.419
			c0.32-0.104,0.646-0.185,0.976-0.247c0.351-0.062,0.702-0.114,1.054-0.155c0.351-0.042,0.687-0.093,1.007-0.155
			c0.32-0.062,0.62-0.14,0.898-0.233c0.279-0.093,0.512-0.221,0.697-0.387V97.903L24.074,97.903z M40.993,99.948
			c0.475-0.248,0.867-0.578,1.177-0.991s0.542-0.883,0.697-1.41c0.155-0.527,0.232-1.079,0.232-1.658
			c0-0.661-0.062-1.286-0.186-1.874c-0.124-0.589-0.331-1.111-0.62-1.565c-0.29-0.454-0.671-0.816-1.146-1.085
			c-0.476-0.268-1.074-0.403-1.797-0.403c-0.62,0-1.152,0.124-1.596,0.372c-0.444,0.248-0.816,0.584-1.116,1.007
			c-0.299,0.424-0.517,0.91-0.65,1.457c-0.135,0.547-0.202,1.12-0.202,1.719c0,0.579,0.057,1.152,0.17,1.72
			c0.113,0.568,0.31,1.08,0.589,1.534c0.279,0.455,0.646,0.826,1.1,1.115c0.454,0.29,1.022,0.434,1.704,0.434
			C39.97,100.32,40.517,100.196,40.993,99.948L40.993,99.948z M47.019,105.278c-0.176,0.826-0.553,1.596-1.131,2.308
			c-0.579,0.713-1.415,1.317-2.51,1.813c-1.095,0.496-2.562,0.744-4.4,0.744c-0.786,0-1.586-0.099-2.401-0.295
			c-0.816-0.196-1.56-0.501-2.231-0.914s-1.229-0.945-1.673-1.595c-0.445-0.651-0.697-1.431-0.759-2.34h4.369
			c0.206,0.826,0.609,1.399,1.208,1.72c0.599,0.32,1.291,0.48,2.076,0.48c1.24,0,2.143-0.372,2.711-1.115
			c0.568-0.744,0.841-1.684,0.821-2.82v-2.107h-0.062c-0.476,0.847-1.152,1.472-2.03,1.874c-0.878,0.403-1.802,0.605-2.773,0.605
			c-1.199,0-2.231-0.212-3.099-0.636c-0.868-0.423-1.581-1.001-2.138-1.735c-0.558-0.733-0.966-1.59-1.224-2.572
			c-0.258-0.98-0.387-2.019-0.387-3.114c0-1.032,0.149-2.029,0.449-2.99c0.299-0.96,0.738-1.807,1.317-2.541
			c0.578-0.733,1.296-1.317,2.154-1.75c0.857-0.434,1.844-0.651,2.959-0.651c1.054,0,1.978,0.196,2.773,0.589
			c0.795,0.392,1.461,1.053,1.999,1.983H43.1v-2.138h4.183v14.997C47.283,103.718,47.194,104.451,47.019,105.278L47.019,105.278z
			 M60.499,91.83c-0.527-0.578-1.328-0.868-2.402-0.868c-0.702,0-1.286,0.12-1.751,0.357c-0.464,0.237-0.836,0.532-1.115,0.883
			c-0.279,0.351-0.476,0.723-0.589,1.115c-0.114,0.393-0.181,0.744-0.201,1.054h7.158C61.392,93.255,61.024,92.409,60.499,91.83
			L60.499,91.83z M55.524,100.258c0.661,0.641,1.612,0.961,2.851,0.961c0.888,0,1.652-0.222,2.293-0.666
			c0.64-0.444,1.033-0.915,1.177-1.41h3.874c-0.62,1.921-1.57,3.295-2.851,4.121c-1.281,0.826-2.83,1.239-4.648,1.239
			c-1.26,0-2.396-0.201-3.408-0.604c-1.013-0.403-1.87-0.976-2.572-1.72c-0.703-0.743-1.245-1.631-1.627-2.664
			c-0.382-1.033-0.573-2.169-0.573-3.409c0-1.198,0.196-2.313,0.588-3.346c0.393-1.033,0.95-1.926,1.674-2.681
			c0.723-0.754,1.585-1.348,2.587-1.781c1.002-0.434,2.112-0.651,3.331-0.651c1.363,0,2.551,0.263,3.563,0.79
			c1.012,0.527,1.844,1.235,2.495,2.123c0.651,0.888,1.12,1.9,1.41,3.036c0.289,1.137,0.392,2.324,0.31,3.564H54.44
			C54.502,98.585,54.863,99.618,55.524,100.258L55.524,100.258z M72.783,88.081v2.231h0.093c0.558-0.93,1.281-1.606,2.169-2.03
			c0.888-0.423,1.797-0.635,2.727-0.635c1.177,0,2.143,0.16,2.897,0.479c0.754,0.321,1.348,0.765,1.782,1.333
			c0.434,0.568,0.738,1.26,0.914,2.076c0.175,0.816,0.263,1.719,0.263,2.711v9.853h-4.4v-9.047c0-1.322-0.206-2.309-0.619-2.96
			c-0.414-0.65-1.147-0.976-2.2-0.976c-1.199,0-2.066,0.357-2.603,1.069C73.269,92.899,73,94.072,73,95.703v8.397h-4.4V88.081
			H72.783L72.783,88.081z M98.16,94.138c-0.124-0.609-0.336-1.146-0.635-1.611c-0.3-0.465-0.687-0.841-1.162-1.131
			c-0.475-0.289-1.074-0.434-1.797-0.434s-1.332,0.145-1.828,0.434c-0.496,0.29-0.894,0.672-1.193,1.147
			c-0.3,0.475-0.517,1.017-0.651,1.626c-0.134,0.61-0.201,1.245-0.201,1.906c0,0.62,0.072,1.24,0.217,1.859
			c0.144,0.62,0.376,1.173,0.697,1.658c0.32,0.486,0.723,0.878,1.208,1.177c0.485,0.3,1.069,0.45,1.751,0.45
			c0.723,0,1.327-0.144,1.813-0.434c0.485-0.289,0.872-0.676,1.162-1.162c0.289-0.485,0.495-1.038,0.619-1.658
			c0.124-0.619,0.186-1.26,0.186-1.921C98.346,95.383,98.284,94.748,98.16,94.138L98.16,94.138z M98.346,102.055
			c-0.516,0.868-1.193,1.493-2.029,1.875c-0.837,0.382-1.782,0.573-2.835,0.573c-1.199,0-2.252-0.232-3.161-0.697
			s-1.658-1.095-2.247-1.89c-0.588-0.795-1.033-1.709-1.332-2.742c-0.3-1.033-0.449-2.107-0.449-3.223
			c0-1.074,0.149-2.112,0.449-3.114c0.299-1.002,0.744-1.885,1.332-2.649c0.589-0.764,1.328-1.379,2.216-1.844
			c0.888-0.465,1.921-0.697,3.099-0.697c0.949,0,1.853,0.201,2.711,0.604c0.857,0.403,1.534,0.997,2.029,1.782h0.062v-8.057h4.4
			V104.1h-4.183v-2.045H98.346L98.346,102.055z M110.122,93.007c0.082-0.867,0.372-1.487,0.867-1.859
			c0.496-0.372,1.178-0.557,2.044-0.557c0.394,0,0.761,0.026,1.101,0.077c0.341,0.052,0.642,0.155,0.899,0.31
			c0.258,0.155,0.465,0.372,0.619,0.651c0.155,0.278,0.232,0.656,0.232,1.131c0.021,0.454-0.113,0.8-0.402,1.038
			c-0.289,0.237-0.682,0.418-1.178,0.542s-1.064,0.217-1.703,0.279c-0.642,0.062-1.293,0.145-1.953,0.248
			c-0.662,0.103-1.317,0.243-1.968,0.418c-0.651,0.176-1.229,0.439-1.735,0.79c-0.507,0.352-0.92,0.821-1.24,1.41
			c-0.32,0.589-0.48,1.338-0.48,2.246c0,0.827,0.139,1.54,0.418,2.138c0.279,0.6,0.667,1.096,1.162,1.488
			c0.496,0.392,1.074,0.682,1.736,0.867c0.66,0.186,1.373,0.279,2.138,0.279c0.991,0,1.962-0.144,2.912-0.433
			c0.95-0.29,1.777-0.795,2.479-1.519c0.021,0.269,0.058,0.532,0.109,0.79c0.051,0.259,0.118,0.512,0.201,0.759h4.462
			c-0.207-0.33-0.353-0.825-0.435-1.487c-0.082-0.661-0.123-1.353-0.123-2.076v-8.335c0-0.971-0.217-1.751-0.65-2.34
			c-0.434-0.588-0.992-1.048-1.674-1.378c-0.682-0.331-1.436-0.553-2.262-0.667c-0.826-0.113-1.643-0.17-2.448-0.17
			c-0.888,0-1.771,0.088-2.649,0.263c-0.878,0.176-1.668,0.47-2.37,0.883c-0.703,0.414-1.281,0.961-1.736,1.643
			c-0.454,0.681-0.712,1.539-0.774,2.571H110.122L110.122,93.007z M115.884,97.903c0,0.248-0.025,0.579-0.077,0.992
			c-0.052,0.413-0.192,0.821-0.419,1.224s-0.578,0.749-1.053,1.038c-0.477,0.289-1.146,0.434-2.014,0.434
			c-0.353,0-0.693-0.031-1.023-0.093s-0.619-0.171-0.867-0.326c-0.248-0.155-0.445-0.366-0.589-0.635
			c-0.145-0.268-0.217-0.599-0.217-0.991c0-0.413,0.072-0.754,0.217-1.023c0.144-0.268,0.335-0.49,0.573-0.666
			c0.237-0.175,0.516-0.315,0.837-0.419c0.319-0.104,0.646-0.185,0.976-0.247c0.352-0.062,0.702-0.114,1.053-0.155
			c0.352-0.042,0.688-0.093,1.008-0.155s0.619-0.14,0.898-0.233c0.279-0.093,0.512-0.221,0.697-0.387V97.903L115.884,97.903z"/>
		<path fill="#FFFFFF" d="M27.886,73.644l-2.851-10.752h-0.062l-2.727,10.752h-4.555l-5.082-16.02h4.648L20.201,68.5h0.062
			l2.665-10.876h4.276l2.727,10.845h0.062l2.944-10.845h4.524l-5.051,16.02H27.886L27.886,73.644z M49.002,61.374
			c-0.527-0.578-1.328-0.868-2.401-0.868c-0.703,0-1.286,0.119-1.75,0.356c-0.465,0.238-0.837,0.532-1.116,0.883
			c-0.279,0.352-0.476,0.724-0.589,1.116c-0.114,0.393-0.181,0.744-0.201,1.053h7.158C49.896,62.799,49.529,61.952,49.002,61.374
			L49.002,61.374z M44.029,69.802c0.661,0.64,1.611,0.96,2.851,0.96c0.888,0,1.652-0.221,2.293-0.666
			c0.64-0.444,1.032-0.914,1.177-1.41h3.873c-0.619,1.921-1.57,3.295-2.85,4.121c-1.282,0.827-2.831,1.24-4.648,1.24
			c-1.26,0-2.396-0.202-3.409-0.604c-1.012-0.403-1.87-0.976-2.572-1.72c-0.703-0.744-1.245-1.632-1.626-2.665
			c-0.383-1.033-0.574-2.169-0.574-3.408c0-1.198,0.196-2.314,0.589-3.347c0.392-1.033,0.95-1.926,1.673-2.68
			s1.585-1.348,2.587-1.782c1.001-0.434,2.112-0.651,3.331-0.651c1.363,0,2.551,0.264,3.563,0.791
			c1.012,0.526,1.844,1.234,2.494,2.122c0.651,0.889,1.121,1.901,1.41,3.037c0.289,1.136,0.392,2.324,0.31,3.563H42.945
			C43.007,68.129,43.368,69.162,44.029,69.802L44.029,69.802z M65.905,57.624v2.944h-3.223V68.5c0,0.744,0.124,1.24,0.372,1.488
			s0.744,0.372,1.487,0.372c0.248,0,0.485-0.011,0.713-0.031c0.227-0.021,0.444-0.052,0.651-0.093v3.408
			c-0.372,0.062-0.786,0.103-1.24,0.124c-0.454,0.02-0.898,0.031-1.332,0.031c-0.682,0-1.328-0.046-1.937-0.139
			c-0.609-0.093-1.146-0.274-1.611-0.543c-0.465-0.268-0.832-0.65-1.1-1.146c-0.269-0.496-0.403-1.147-0.403-1.952v-9.451h-2.665
			v-2.944h2.665v-4.803h4.4v4.803H65.905L65.905,57.624z M77.695,61.374c-0.527-0.578-1.328-0.868-2.402-0.868
			c-0.702,0-1.286,0.119-1.751,0.356c-0.464,0.238-0.836,0.532-1.115,0.883c-0.279,0.352-0.475,0.724-0.589,1.116
			c-0.114,0.393-0.181,0.744-0.201,1.053h7.158C78.588,62.799,78.221,61.952,77.695,61.374L77.695,61.374z M72.721,69.802
			c0.661,0.64,1.612,0.96,2.851,0.96c0.888,0,1.652-0.221,2.293-0.666c0.64-0.444,1.033-0.914,1.178-1.41h3.873
			c-0.62,1.921-1.57,3.295-2.851,4.121c-1.281,0.827-2.83,1.24-4.648,1.24c-1.26,0-2.396-0.202-3.408-0.604
			c-1.013-0.403-1.87-0.976-2.572-1.72c-0.703-0.744-1.245-1.632-1.627-2.665c-0.382-1.033-0.573-2.169-0.573-3.408
			c0-1.198,0.196-2.314,0.589-3.347c0.392-1.033,0.949-1.926,1.673-2.68c0.723-0.754,1.585-1.348,2.587-1.782
			s2.112-0.651,3.331-0.651c1.364,0,2.551,0.264,3.564,0.791c1.011,0.526,1.843,1.234,2.494,2.122
			c0.651,0.889,1.12,1.901,1.41,3.037c0.289,1.136,0.392,2.324,0.31,3.563H71.637C71.699,68.129,72.061,69.162,72.721,69.802
			L72.721,69.802z M89.98,57.624v2.231h0.093c0.558-0.929,1.281-1.606,2.169-2.029c0.888-0.423,1.797-0.636,2.727-0.636
			c1.178,0,2.143,0.161,2.897,0.481c0.754,0.32,1.348,0.764,1.782,1.332c0.434,0.569,0.738,1.26,0.914,2.076
			c0.175,0.817,0.263,1.72,0.263,2.712v9.853h-4.4v-9.048c0-1.322-0.206-2.308-0.619-2.959c-0.414-0.651-1.147-0.976-2.2-0.976
			c-1.199,0-2.066,0.356-2.603,1.069c-0.538,0.713-0.806,1.885-0.806,3.517v8.397h-4.4v-16.02H89.98L89.98,57.624z M107.875,69.662
			c0.196,0.341,0.45,0.62,0.759,0.837c0.31,0.217,0.667,0.377,1.069,0.48c0.403,0.104,0.822,0.155,1.255,0.155
			c0.31,0,0.636-0.036,0.976-0.108c0.342-0.072,0.651-0.186,0.93-0.341c0.279-0.155,0.512-0.361,0.697-0.62
			c0.187-0.258,0.279-0.583,0.279-0.976c0-0.661-0.439-1.157-1.316-1.487c-0.879-0.33-2.103-0.661-3.672-0.992
			c-0.64-0.144-1.265-0.314-1.874-0.511c-0.61-0.196-1.152-0.454-1.627-0.775c-0.475-0.32-0.857-0.723-1.147-1.208
			c-0.289-0.485-0.433-1.079-0.433-1.782c0-1.033,0.201-1.879,0.604-2.541c0.403-0.661,0.934-1.182,1.596-1.564
			c0.661-0.382,1.404-0.651,2.231-0.806c0.826-0.155,1.673-0.233,2.541-0.233s1.709,0.083,2.525,0.248
			c0.816,0.166,1.544,0.445,2.185,0.837c0.64,0.393,1.173,0.914,1.596,1.565s0.677,1.472,0.759,2.463h-4.183
			c-0.063-0.847-0.383-1.42-0.961-1.72c-0.578-0.299-1.26-0.449-2.044-0.449c-0.248,0-0.517,0.016-0.806,0.047
			c-0.29,0.031-0.553,0.098-0.79,0.201c-0.238,0.104-0.439,0.253-0.604,0.449c-0.166,0.197-0.248,0.46-0.248,0.79
			c0,0.393,0.144,0.713,0.433,0.961c0.29,0.248,0.667,0.449,1.131,0.604c0.465,0.155,0.997,0.295,1.596,0.419
			c0.599,0.124,1.209,0.258,1.828,0.402c0.641,0.145,1.266,0.321,1.875,0.527c0.608,0.207,1.15,0.48,1.627,0.821
			c0.475,0.341,0.856,0.765,1.146,1.271c0.289,0.506,0.435,1.131,0.435,1.874c0,1.054-0.213,1.937-0.635,2.65
			c-0.425,0.712-0.977,1.286-1.658,1.719c-0.683,0.434-1.461,0.739-2.34,0.915c-0.879,0.175-1.771,0.263-2.681,0.263
			c-0.929,0-1.838-0.093-2.726-0.279c-0.889-0.186-1.679-0.496-2.371-0.93c-0.692-0.433-1.26-1.007-1.704-1.719
			c-0.444-0.713-0.687-1.606-0.728-2.681h4.183C107.581,68.914,107.678,69.322,107.875,69.662L107.875,69.662z M128.464,60.506
			c-0.702,0-1.291,0.16-1.766,0.48c-0.476,0.321-0.863,0.734-1.162,1.24c-0.301,0.506-0.512,1.064-0.635,1.673
			c-0.125,0.61-0.187,1.214-0.187,1.813c0,0.578,0.062,1.167,0.187,1.766c0.123,0.599,0.324,1.141,0.604,1.627
			c0.279,0.485,0.656,0.883,1.131,1.193c0.475,0.309,1.055,0.464,1.735,0.464c1.054,0,1.864-0.294,2.433-0.883
			c0.568-0.588,0.924-1.379,1.069-2.37h4.245c-0.291,2.128-1.116,3.749-2.479,4.865c-1.364,1.115-3.108,1.673-5.237,1.673
			c-1.197,0-2.297-0.202-3.299-0.604c-1.002-0.403-1.854-0.966-2.557-1.689c-0.703-0.723-1.25-1.585-1.643-2.587
			s-0.588-2.102-0.588-3.3c0-1.24,0.18-2.391,0.541-3.455s0.894-1.983,1.596-2.758c0.703-0.775,1.56-1.379,2.572-1.813
			c1.012-0.434,2.17-0.651,3.471-0.651c0.949,0,1.863,0.124,2.742,0.372c0.877,0.248,1.662,0.625,2.354,1.131
			c0.692,0.507,1.255,1.137,1.688,1.89c0.435,0.755,0.683,1.648,0.744,2.681h-4.307C131.428,61.425,130.344,60.506,128.464,60.506
			L128.464,60.506L128.464,60.506z M142.997,51.52v8.335h0.093c0.559-0.929,1.271-1.606,2.139-2.029s1.715-0.636,2.541-0.636
			c1.178,0,2.143,0.161,2.896,0.481c0.754,0.32,1.348,0.764,1.781,1.332c0.435,0.569,0.738,1.26,0.914,2.076
			c0.176,0.817,0.265,1.72,0.265,2.712v9.853h-4.399v-9.048c0-1.322-0.207-2.308-0.621-2.959s-1.146-0.976-2.199-0.976
			c-1.198,0-2.066,0.356-2.604,1.069c-0.537,0.713-0.806,1.885-0.806,3.517v8.397h-4.4V51.52H142.997L142.997,51.52z
			 M161.185,62.551c0.082-0.868,0.372-1.487,0.867-1.859c0.496-0.372,1.178-0.558,2.045-0.558c0.393,0,0.76,0.026,1.1,0.078
			c0.342,0.051,0.641,0.155,0.899,0.309c0.259,0.155,0.466,0.372,0.62,0.651c0.155,0.279,0.232,0.656,0.232,1.131
			c0.02,0.455-0.114,0.801-0.403,1.038c-0.289,0.238-0.681,0.419-1.177,0.542c-0.496,0.124-1.064,0.217-1.704,0.279
			c-0.642,0.062-1.292,0.145-1.953,0.248c-0.661,0.104-1.315,0.243-1.968,0.419c-0.65,0.175-1.229,0.439-1.734,0.79
			c-0.507,0.351-0.92,0.821-1.24,1.41c-0.32,0.588-0.479,1.337-0.479,2.246c0,0.827,0.139,1.539,0.418,2.138
			c0.278,0.599,0.666,1.095,1.161,1.487c0.496,0.393,1.074,0.682,1.736,0.868c0.66,0.186,1.373,0.279,2.137,0.279
			c0.992,0,1.964-0.145,2.914-0.434c0.949-0.289,1.776-0.795,2.479-1.518c0.02,0.268,0.057,0.532,0.109,0.79
			c0.051,0.258,0.117,0.511,0.201,0.759h4.461c-0.207-0.33-0.352-0.826-0.434-1.487c-0.083-0.661-0.124-1.353-0.124-2.076v-8.336
			c0-0.97-0.217-1.75-0.651-2.339c-0.433-0.589-0.99-1.048-1.672-1.379c-0.682-0.33-1.437-0.552-2.263-0.666
			c-0.825-0.113-1.642-0.171-2.448-0.171c-0.888,0-1.771,0.089-2.648,0.264c-0.879,0.176-1.668,0.47-2.37,0.883
			c-0.703,0.413-1.281,0.961-1.735,1.642c-0.455,0.682-0.713,1.539-0.775,2.572H161.185L161.185,62.551z M166.949,67.447
			c0,0.248-0.026,0.578-0.077,0.991c-0.052,0.414-0.192,0.822-0.419,1.224c-0.227,0.403-0.578,0.749-1.053,1.038
			c-0.477,0.29-1.147,0.434-2.015,0.434c-0.353,0-0.692-0.031-1.022-0.093s-0.621-0.17-0.867-0.325
			c-0.248-0.155-0.445-0.367-0.59-0.635c-0.145-0.269-0.217-0.599-0.217-0.992c0-0.413,0.072-0.754,0.217-1.022
			c0.145-0.269,0.336-0.491,0.574-0.667c0.236-0.175,0.516-0.314,0.836-0.418c0.32-0.103,0.646-0.186,0.977-0.248
			c0.352-0.062,0.701-0.113,1.053-0.155c0.352-0.041,0.688-0.093,1.008-0.155c0.319-0.062,0.619-0.139,0.898-0.232
			c0.279-0.093,0.511-0.222,0.697-0.387V67.447L166.949,67.447z M184.656,70.329c0.486-0.289,0.879-0.667,1.179-1.131
			c0.299-0.465,0.511-1.007,0.635-1.627s0.187-1.25,0.187-1.89s-0.067-1.271-0.201-1.89c-0.135-0.62-0.357-1.173-0.668-1.658
			c-0.309-0.485-0.706-0.878-1.192-1.178c-0.485-0.299-1.079-0.449-1.78-0.449c-0.725,0-1.328,0.15-1.813,0.449
			c-0.486,0.3-0.878,0.687-1.177,1.162c-0.301,0.476-0.512,1.023-0.637,1.643c-0.123,0.619-0.186,1.26-0.186,1.921
			c0,0.64,0.066,1.27,0.201,1.89s0.352,1.162,0.652,1.627c0.299,0.464,0.696,0.842,1.191,1.131c0.496,0.289,1.096,0.433,1.798,0.433
			C183.568,70.762,184.171,70.618,184.656,70.329L184.656,70.329z M178.939,57.624v2.045h0.063c0.537-0.867,1.219-1.497,2.045-1.89
			c0.826-0.392,1.736-0.589,2.727-0.589c1.26,0,2.346,0.238,3.254,0.713c0.91,0.476,1.662,1.105,2.263,1.89
			c0.599,0.786,1.043,1.7,1.332,2.743c0.288,1.043,0.434,2.133,0.434,3.269c0,1.074-0.146,2.107-0.434,3.098
			c-0.289,0.992-0.728,1.87-1.317,2.634c-0.588,0.765-1.322,1.374-2.199,1.828c-0.879,0.454-1.906,0.682-3.084,0.682
			c-0.99,0-1.904-0.202-2.742-0.604c-0.836-0.403-1.523-0.997-2.061-1.782h-0.063v7.592h-4.399V57.624H178.939L178.939,57.624z
			 M197.392,69.662c0.195,0.341,0.449,0.62,0.76,0.837c0.309,0.217,0.666,0.377,1.068,0.48c0.402,0.104,0.821,0.155,1.256,0.155
			c0.309,0,0.635-0.036,0.975-0.108c0.341-0.072,0.65-0.186,0.93-0.341c0.279-0.155,0.511-0.361,0.697-0.62
			c0.186-0.258,0.279-0.583,0.279-0.976c0-0.661-0.439-1.157-1.317-1.487s-2.103-0.661-3.673-0.992
			c-0.639-0.144-1.264-0.314-1.873-0.511c-0.61-0.196-1.152-0.454-1.627-0.775c-0.475-0.32-0.857-0.723-1.146-1.208
			c-0.29-0.485-0.434-1.079-0.434-1.782c0-1.033,0.201-1.879,0.604-2.541c0.403-0.661,0.934-1.182,1.596-1.564
			c0.662-0.382,1.404-0.651,2.231-0.806c0.826-0.155,1.673-0.233,2.541-0.233c0.867,0,1.709,0.083,2.524,0.248
			c0.816,0.166,1.545,0.445,2.186,0.837c0.641,0.393,1.172,0.914,1.596,1.565c0.422,0.651,0.676,1.472,0.758,2.463h-4.183
			c-0.062-0.847-0.382-1.42-0.96-1.72c-0.578-0.299-1.26-0.449-2.045-0.449c-0.248,0-0.518,0.016-0.807,0.047
			c-0.288,0.031-0.553,0.098-0.789,0.201c-0.238,0.104-0.439,0.253-0.604,0.449c-0.166,0.197-0.248,0.46-0.248,0.79
			c0,0.393,0.144,0.713,0.434,0.961c0.289,0.248,0.666,0.449,1.131,0.604c0.464,0.155,0.996,0.295,1.595,0.419
			c0.599,0.124,1.209,0.258,1.829,0.402c0.641,0.145,1.266,0.321,1.874,0.527c0.608,0.207,1.151,0.48,1.627,0.821
			c0.476,0.341,0.856,0.765,1.146,1.271c0.289,0.506,0.435,1.131,0.435,1.874c0,1.054-0.212,1.937-0.636,2.65
			c-0.424,0.712-0.975,1.286-1.657,1.719c-0.681,0.434-1.461,0.739-2.339,0.915c-0.878,0.175-1.771,0.263-2.68,0.263
			c-0.931,0-1.84-0.093-2.728-0.279c-0.89-0.186-1.679-0.496-2.371-0.93c-0.692-0.433-1.26-1.007-1.704-1.719
			c-0.443-0.713-0.687-1.606-0.728-2.681h4.183C197.097,68.914,197.195,69.322,197.392,69.662L197.392,69.662z"/>
		<path fill="#FFFFFF" d="M18.28,27.168v2.231h0.093c0.558-0.93,1.28-1.606,2.169-2.03c0.888-0.423,1.797-0.635,2.727-0.635
			c1.178,0,2.143,0.16,2.897,0.48c0.754,0.321,1.348,0.765,1.782,1.333c0.434,0.568,0.738,1.26,0.914,2.076
			c0.175,0.816,0.263,1.72,0.263,2.711v9.854h-4.4V34.14c0-1.322-0.207-2.309-0.62-2.959c-0.414-0.651-1.146-0.976-2.2-0.976
			c-1.198,0-2.066,0.356-2.603,1.069c-0.537,0.712-0.805,1.885-0.805,3.516v8.398h-4.4v-16.02H18.28L18.28,27.168z M36.685,32.095
			c0.083-0.868,0.372-1.488,0.868-1.859c0.496-0.372,1.178-0.558,2.045-0.558c0.392,0,0.759,0.026,1.1,0.077
			c0.341,0.052,0.64,0.155,0.899,0.31c0.258,0.155,0.465,0.372,0.62,0.651c0.155,0.279,0.232,0.656,0.232,1.131
			c0.02,0.454-0.114,0.801-0.403,1.038c-0.29,0.238-0.682,0.418-1.178,0.542c-0.496,0.124-1.064,0.217-1.704,0.279
			c-0.641,0.062-1.291,0.145-1.952,0.248s-1.317,0.243-1.967,0.418c-0.651,0.176-1.229,0.439-1.735,0.79
			c-0.506,0.352-0.919,0.821-1.24,1.41s-0.48,1.338-0.48,2.247c0,0.826,0.139,1.539,0.418,2.138
			c0.279,0.599,0.667,1.095,1.162,1.487c0.496,0.393,1.074,0.682,1.735,0.868c0.661,0.186,1.374,0.279,2.138,0.279
			c0.991,0,1.962-0.145,2.913-0.434c0.95-0.289,1.776-0.795,2.479-1.519c0.02,0.269,0.057,0.532,0.108,0.791
			c0.051,0.258,0.119,0.511,0.201,0.759h4.462c-0.207-0.331-0.351-0.826-0.434-1.488c-0.083-0.661-0.124-1.352-0.124-2.076v-8.335
			c0-0.971-0.217-1.751-0.651-2.339c-0.434-0.589-0.991-1.049-1.673-1.379s-1.436-0.553-2.262-0.666
			c-0.827-0.114-1.642-0.171-2.448-0.171c-0.889,0-1.771,0.088-2.649,0.263c-0.878,0.176-1.668,0.471-2.371,0.884
			c-0.702,0.413-1.281,0.96-1.735,1.642c-0.455,0.682-0.713,1.539-0.775,2.572H36.685L36.685,32.095z M42.449,36.99
			c0,0.248-0.026,0.579-0.078,0.992c-0.052,0.413-0.191,0.821-0.418,1.224c-0.227,0.403-0.578,0.749-1.053,1.038
			c-0.476,0.29-1.146,0.434-2.014,0.434c-0.352,0-0.692-0.031-1.022-0.093c-0.331-0.062-0.62-0.171-0.868-0.326
			c-0.248-0.154-0.444-0.366-0.589-0.635c-0.145-0.268-0.217-0.599-0.217-0.991c0-0.413,0.072-0.754,0.217-1.023
			c0.145-0.268,0.336-0.49,0.573-0.666c0.237-0.175,0.516-0.315,0.837-0.418c0.32-0.103,0.645-0.186,0.976-0.248
			c0.351-0.062,0.702-0.114,1.053-0.155c0.351-0.041,0.687-0.093,1.007-0.155c0.32-0.062,0.62-0.14,0.898-0.232
			c0.279-0.093,0.511-0.222,0.697-0.388V36.99L42.449,36.99z M59.057,27.168v2.944h-3.223v7.932c0,0.744,0.124,1.239,0.372,1.487
			c0.248,0.248,0.743,0.372,1.487,0.372c0.248,0,0.485-0.01,0.713-0.031c0.227-0.02,0.444-0.051,0.651-0.093v3.409
			c-0.372,0.062-0.786,0.103-1.24,0.124c-0.455,0.02-0.899,0.031-1.332,0.031c-0.682,0-1.328-0.047-1.937-0.14
			c-0.609-0.093-1.146-0.273-1.611-0.542c-0.465-0.268-0.832-0.651-1.1-1.147c-0.269-0.495-0.403-1.146-0.403-1.952v-9.45H48.77
			v-2.944h2.665v-4.803h4.4v4.803H59.057L59.057,27.168z M61.287,24.689v-3.625h4.4v3.625H61.287L61.287,24.689z M65.688,27.168
			v16.02h-4.4v-16.02H65.688L65.688,27.168z M73.249,37.068c0.124,0.609,0.335,1.157,0.635,1.642
			c0.299,0.486,0.697,0.873,1.193,1.162c0.496,0.29,1.115,0.434,1.859,0.434c0.744,0,1.368-0.144,1.875-0.434
			c0.506-0.289,0.908-0.676,1.208-1.162c0.299-0.485,0.511-1.033,0.635-1.642c0.124-0.609,0.186-1.234,0.186-1.875
			c0-0.64-0.062-1.27-0.186-1.89s-0.336-1.167-0.635-1.642c-0.3-0.475-0.702-0.862-1.208-1.162
			c-0.507-0.299-1.131-0.449-1.875-0.449c-0.744,0-1.363,0.15-1.859,0.449c-0.496,0.3-0.894,0.687-1.193,1.162
			c-0.3,0.475-0.511,1.022-0.635,1.642s-0.186,1.25-0.186,1.89C73.063,35.834,73.125,36.459,73.249,37.068L73.249,37.068z
			 M69.25,31.707c0.393-1.043,0.95-1.931,1.674-2.664c0.723-0.733,1.59-1.302,2.603-1.705c1.011-0.403,2.148-0.604,3.408-0.604
			c1.26,0,2.401,0.201,3.424,0.604c1.023,0.403,1.895,0.972,2.618,1.705c0.723,0.733,1.281,1.621,1.674,2.664
			c0.392,1.044,0.588,2.206,0.588,3.486c0,1.281-0.196,2.438-0.588,3.471c-0.393,1.033-0.951,1.916-1.674,2.649
			c-0.723,0.734-1.595,1.297-2.618,1.689c-1.023,0.392-2.164,0.589-3.424,0.589c-1.26,0-2.397-0.197-3.408-0.589
			c-1.013-0.392-1.88-0.955-2.603-1.689c-0.724-0.733-1.281-1.616-1.674-2.649c-0.392-1.033-0.588-2.19-0.588-3.471
			C68.662,33.913,68.858,32.751,69.25,31.707L69.25,31.707z M92.273,27.168v2.231h0.093c0.558-0.93,1.28-1.606,2.169-2.03
			c0.888-0.423,1.797-0.635,2.727-0.635c1.177,0,2.143,0.16,2.897,0.48c0.754,0.321,1.348,0.765,1.782,1.333
			c0.433,0.568,0.738,1.26,0.914,2.076c0.175,0.816,0.263,1.72,0.263,2.711v9.854h-4.4V34.14c0-1.322-0.207-2.309-0.62-2.959
			c-0.413-0.651-1.146-0.976-2.2-0.976c-1.198,0-2.066,0.356-2.603,1.069c-0.537,0.712-0.805,1.885-0.805,3.516v8.398h-4.4v-16.02
			H92.273L92.273,27.168z M110.678,32.095c0.083-0.868,0.372-1.488,0.868-1.859c0.496-0.372,1.177-0.558,2.045-0.558
			c0.393,0,0.76,0.026,1.1,0.077c0.342,0.052,0.641,0.155,0.898,0.31c0.259,0.155,0.465,0.372,0.62,0.651
			c0.155,0.279,0.233,0.656,0.233,1.131c0.02,0.454-0.115,0.801-0.403,1.038c-0.29,0.238-0.683,0.418-1.179,0.542
			c-0.494,0.124-1.063,0.217-1.703,0.279c-0.641,0.062-1.291,0.145-1.952,0.248s-1.317,0.243-1.968,0.418
			c-0.65,0.176-1.229,0.439-1.735,0.79c-0.506,0.352-0.919,0.821-1.239,1.41c-0.321,0.589-0.481,1.338-0.481,2.247
			c0,0.826,0.14,1.539,0.419,2.138c0.279,0.599,0.666,1.095,1.162,1.487c0.495,0.393,1.074,0.682,1.735,0.868
			c0.661,0.186,1.373,0.279,2.138,0.279c0.992,0,1.963-0.145,2.914-0.434c0.949-0.289,1.775-0.795,2.479-1.519
			c0.02,0.269,0.057,0.532,0.107,0.791c0.051,0.258,0.119,0.511,0.201,0.759h4.463c-0.207-0.331-0.352-0.826-0.434-1.488
			c-0.083-0.661-0.124-1.352-0.124-2.076v-8.335c0-0.971-0.217-1.751-0.651-2.339c-0.434-0.589-0.992-1.049-1.672-1.379
			c-0.683-0.33-1.437-0.553-2.263-0.666c-0.827-0.114-1.644-0.171-2.448-0.171c-0.889,0-1.771,0.088-2.65,0.263
			c-0.877,0.176-1.667,0.471-2.369,0.884c-0.702,0.413-1.281,0.96-1.735,1.642c-0.455,0.682-0.713,1.539-0.775,2.572H110.678
			L110.678,32.095z M116.443,36.99c0,0.248-0.027,0.579-0.078,0.992c-0.053,0.413-0.191,0.821-0.418,1.224
			c-0.229,0.403-0.58,0.749-1.055,1.038c-0.475,0.29-1.146,0.434-2.014,0.434c-0.352,0-0.691-0.031-1.021-0.093
			c-0.332-0.062-0.621-0.171-0.869-0.326c-0.248-0.154-0.444-0.366-0.589-0.635c-0.144-0.268-0.217-0.599-0.217-0.991
			c0-0.413,0.073-0.754,0.217-1.023c0.145-0.268,0.336-0.49,0.574-0.666c0.237-0.175,0.517-0.315,0.837-0.418
			c0.319-0.103,0.646-0.186,0.975-0.248c0.352-0.062,0.703-0.114,1.055-0.155s0.686-0.093,1.007-0.155
			c0.32-0.062,0.62-0.14,0.897-0.232c0.279-0.093,0.513-0.222,0.699-0.388V36.99L116.443,36.99z M128.775,21.064v22.124h-4.4V21.064
			H128.775L128.775,21.064z M141.927,30.917c-0.527-0.578-1.326-0.867-2.4-0.867c-0.703,0-1.287,0.119-1.752,0.356
			c-0.465,0.238-0.836,0.532-1.115,0.883c-0.278,0.352-0.475,0.723-0.588,1.116c-0.114,0.392-0.182,0.743-0.203,1.053h7.158
			C142.82,32.343,142.455,31.496,141.927,30.917L141.927,30.917z M136.955,39.345c0.66,0.641,1.611,0.961,2.851,0.961
			c0.888,0,1.652-0.222,2.293-0.666c0.64-0.444,1.032-0.914,1.177-1.41h3.873c-0.619,1.921-1.57,3.295-2.85,4.121
			c-1.281,0.827-2.831,1.24-4.648,1.24c-1.261,0-2.396-0.202-3.408-0.605c-1.012-0.403-1.87-0.976-2.572-1.719
			c-0.702-0.744-1.244-1.632-1.626-2.665c-0.384-1.033-0.574-2.169-0.574-3.409c0-1.198,0.197-2.313,0.589-3.346
			c0.393-1.033,0.95-1.926,1.674-2.681c0.723-0.753,1.586-1.347,2.588-1.781c1-0.434,2.111-0.651,3.33-0.651
			c1.363,0,2.551,0.263,3.563,0.79c1.013,0.527,1.844,1.235,2.495,2.123c0.65,0.888,1.119,1.901,1.408,3.036
			c0.289,1.137,0.394,2.324,0.311,3.564h-11.559C135.931,37.672,136.293,38.705,136.955,39.345L136.955,39.345z"/>
		<polygon fill="#EF3742" points="110.182,193.217 165.305,248.338 220.427,193.217 165.305,138.094 110.182,193.217 		"/>
		<polygon fill="#0063A7" points="0,193.154 110.244,303.399 165.367,248.277 55.123,138.032 0,193.154 		"/>
		<path fill="#FFFFFF" d="M82.463,220.936c15.343,15.345,40.22,15.345,55.563,0c15.344-15.342,15.344-40.219,0-55.563
			s-40.221-15.344-55.563,0C67.119,180.717,67.119,205.594,82.463,220.936L82.463,220.936z"/>
		<path fill="#EF3742" d="M155.828,238.861c25.209-25.209,25.209-66.081,0-91.29c-25.209-25.208-66.08-25.208-91.289,0
			c-25.209,25.209-25.209,66.081,0,91.29C89.748,264.07,130.619,264.07,155.828,238.861L155.828,238.861z"/>
		<path fill="#FFFFFF" d="M133.804,169.594l12.495-12.494c-19.946-19.945-52.286-19.945-72.233,0
			c-19.946,19.947-19.946,52.287,0,72.232l12.495-12.494c-13.046-13.046-13.046-34.197,0-47.242
			C99.607,156.549,120.758,156.549,133.804,169.594L133.804,169.594z"/>
		<path fill="#0063A7" d="M86.562,216.838l-12.495,12.494c19.947,19.947,52.287,19.947,72.232,0
			c19.947-19.945,19.947-52.285,0-72.232l-12.494,12.494c13.047,13.047,13.047,34.198,0,47.244
			C120.758,229.883,99.607,229.883,86.562,216.838L86.562,216.838z"/>
		<path fill="#FFFFFF" d="M124.601,207.633c7.961-7.961,7.961-20.871,0-28.834c-7.964-7.961-20.873-7.961-28.835,0
			c-7.963,7.963-7.963,20.873,0,28.834C103.729,215.596,116.637,215.596,124.601,207.633L124.601,207.633z"/>
	</g>
</g>
</svg>
